<svg xmlns="http://www.w3.org/2000/svg" xmlns:xlink="http://www.w3.org/1999/xlink" width="500" zoomAndPan="magnify" viewBox="0 0 375 374.999991" height="500" preserveAspectRatio="xMidYMid meet" version="1.0"><defs><g/></defs><rect x="-37.5" width="450" fill="#ffffff" y="-37.499999" height="449.999989" fill-opacity="1"/><rect x="-37.5" width="450" fill="#ffffff" y="-37.499999" height="449.999989" fill-opacity="1"/><path fill="#000000" d="M 92.496094 253.691406 C 94.089844 252.597656 96.0625 252.167969 97.859375 252.046875 C 96.851562 251.195312 95.839844 250.242188 94.839844 249.195312 C 91.132812 245.3125 87.542969 240.09375 85.136719 234.066406 C 82.71875 228.015625 81.488281 221.148438 82.511719 213.988281 C 83.648438 206.003906 87.578125 197.679688 95.765625 189.761719 L 100.011719 167.238281 C 101.597656 158.824219 104.902344 150.726562 108.53125 143.84375 C 113.371094 134.660156 118.972656 127.527344 121.867188 124.613281 C 120.773438 108.757812 125.855469 98.289062 132.140625 85.363281 C 132.730469 84.144531 133.335938 82.90625 133.925781 81.675781 C 128.886719 81.105469 123.378906 77.695312 118.832031 72.566406 C 116.347656 69.769531 114.140625 66.453125 112.445312 62.8125 C 110.75 59.167969 109.5625 55.183594 109.128906 51.050781 C 108.128906 41.574219 111.074219 31.367188 120.839844 22.722656 C 144.335938 1.921875 164.820312 12.289062 169.960938 15.492188 C 172.355469 12.449219 180.816406 5.695312 209.546875 3.082031 C 242.761719 0.0664062 264.910156 22.972656 269.484375 28.175781 C 273.640625 25.28125 289.496094 17.089844 321.472656 31.480469 C 323.632812 32.449219 325.679688 33.496094 327.625 34.605469 C 342.75 43.238281 351.9375 56.058594 355.859375 70.023438 C 359.777344 83.972656 358.429688 99.054688 352.484375 112.238281 C 351.664062 114.054688 350.75 115.847656 349.75 117.605469 L 349.75 117.609375 C 335.238281 142.976562 307.664062 140.972656 301.214844 140.121094 C 300.777344 142.210938 299.625 146.695312 296.710938 154.03125 C 293.082031 163.171875 286.671875 172.300781 284.910156 174.734375 C 285.480469 177.175781 286.183594 183.316406 284.242188 196.636719 C 281.921875 212.582031 275.339844 220.960938 273.398438 223.132812 C 274.125 226.511719 276.578125 240.933594 269.226562 254.746094 C 270.914062 256.46875 274.15625 260.917969 273.074219 268.914062 C 272.875 270.375 272.382812 271.90625 271.636719 273.46875 C 273.742188 274.738281 277.074219 278.132812 275.214844 286.496094 C 275.175781 286.675781 275.140625 286.820312 275.113281 286.929688 L 275.109375 286.929688 C 273.671875 292.398438 267.636719 299.253906 259.371094 304.105469 C 251.558594 308.691406 241.707031 311.554688 231.824219 309.84375 C 236.472656 318.804688 240.324219 321.613281 249.015625 320.011719 C 234.613281 332.488281 229.703125 334.589844 207.304688 336.574219 C 182.558594 337.433594 166.171875 322.742188 161.519531 317.972656 C 159.929688 320.671875 157.851562 322.929688 155.523438 324.429688 C 154.746094 324.929688 153.9375 325.34375 153.109375 325.667969 L 153.105469 325.667969 C 149.535156 327.058594 144.886719 327.515625 140.113281 326.980469 C 135.535156 326.46875 130.808594 325.039062 126.792969 322.640625 C 124.753906 321.421875 122.894531 319.957031 121.328125 318.230469 C 117.539062 324.496094 111.648438 328.167969 104.988281 330.0625 C 95.667969 332.714844 84.824219 331.859375 76.226562 329.796875 L 76.296875 329.511719 C 75.019531 329.875 73.710938 330.191406 72.371094 330.449219 C 60.359375 332.746094 46.066406 330.363281 32.503906 315.386719 C 31.96875 314.792969 31.476562 314.234375 31.03125 313.710938 C 25.421875 307.105469 21.503906 300.292969 19.132812 293.515625 C 15.722656 283.777344 15.515625 274.125 18.089844 265.269531 C 20.316406 257.597656 24.628906 250.535156 30.746094 244.542969 C 30.242188 243.292969 29.695312 241.335938 29.023438 238.945312 C 28.457031 236.917969 27.796875 234.558594 27.03125 232.082031 C 26.527344 230.449219 25.765625 228.609375 24.976562 226.707031 C 22.902344 221.699219 20.648438 216.253906 21.84375 211.863281 C 22.351562 209.984375 23.296875 208.242188 24.589844 206.832031 C 25.863281 205.453125 27.476562 204.390625 29.359375 203.832031 C 31.226562 203.28125 33.339844 203.226562 35.628906 203.847656 C 38.183594 204.539062 40.960938 206.082031 43.847656 208.734375 C 54.117188 218.167969 56.179688 226.066406 56.554688 229.574219 C 59.453125 228.933594 63.117188 228.851562 66.472656 229.550781 C 68.996094 230.078125 71.378906 231.042969 73.183594 232.535156 C 75.089844 234.113281 76.355469 236.253906 76.507812 239.050781 C 76.578125 240.308594 76.414062 241.695312 75.96875 243.210938 C 79.347656 241.980469 84.582031 241.628906 89.453125 247.738281 C 91.152344 249.871094 92.074219 251.871094 92.492188 253.691406 Z M 92.496094 253.691406 " fill-opacity="1" fill-rule="nonzero"/><path fill="#fbfcfc" d="M 152.820312 94.636719 C 153.710938 91.109375 156.5 79.195312 154.003906 77.675781 C 153.390625 77.300781 152.652344 77.421875 151.976562 77.84375 C 151.496094 78.140625 151.050781 78.582031 150.683594 79.109375 C 150.308594 79.65625 150.019531 80.285156 149.867188 80.949219 C 149.554688 82.320312 149.84375 83.859375 151.183594 85.058594 C 147.371094 84.855469 145.832031 81.253906 148.40625 77.539062 C 148.988281 76.699219 149.714844 75.988281 150.515625 75.492188 C 152.042969 74.539062 153.820312 74.328125 155.445312 75.316406 C 159.25 77.628906 156.808594 89.796875 155.703125 94.488281 C 168.464844 93.976562 185.066406 95.242188 204.988281 100.898438 C 206.882812 97.734375 213.578125 85.914062 209.777344 82.707031 C 206.152344 79.652344 204.195312 87.457031 204.191406 87.480469 C 200.078125 83.621094 206.0625 75.953125 211.566406 80.597656 C 216.734375 84.953125 210.191406 97.4375 207.730469 101.695312 C 223.125 106.308594 240.429688 113.527344 259.410156 124.507812 C 260.738281 125.277344 262.078125 126.0625 263.425781 126.871094 C 265.453125 122.359375 272.089844 108.941406 280.351562 106.289062 C 291.160156 102.820312 288.628906 111.570312 285.164062 112.042969 C 285.171875 112.03125 287.539062 106.886719 281.195312 108.921875 C 273.785156 111.300781 267.519531 124.4375 265.8125 128.3125 C 269.871094 130.789062 274.011719 133.441406 278.234375 136.273438 C 283.945312 140.105469 289.785156 144.261719 295.753906 148.765625 C 298.363281 141.515625 298.710938 138.398438 298.714844 138.386719 L 298.886719 136.921875 L 300.339844 137.1875 C 300.429688 137.207031 331.847656 143.324219 347.339844 116.234375 L 347.34375 116.234375 C 348.292969 114.574219 349.167969 112.859375 349.960938 111.101562 C 355.640625 98.496094 356.933594 84.085938 353.191406 70.769531 C 349.457031 57.472656 340.691406 45.253906 326.25 37.007812 C 324.367188 35.933594 322.394531 34.929688 320.335938 34.003906 C 284.210938 17.746094 270.261719 31.058594 270.222656 31.097656 L 269.136719 32.097656 L 268.207031 30.945312 C 268.140625 30.863281 245.683594 2.574219 209.796875 5.835938 C 200.957031 6.636719 174.636719 8.621094 171.105469 19.699219 L 169.554688 18.546875 C 169.492188 18.5 148.132812 2.253906 122.671875 24.792969 C 113.683594 32.746094 110.96875 42.101562 111.878906 50.769531 C 112.28125 54.578125 113.382812 58.265625 114.960938 61.65625 C 116.542969 65.050781 118.59375 68.136719 120.902344 70.738281 C 124.070312 74.3125 127.691406 76.960938 131.167969 78.207031 C 133.460938 79.027344 136.183594 79.515625 137.824219 79.90625 C 136.675781 82.359375 135.640625 84.496094 134.632812 86.566406 C 132.539062 90.878906 130.578125 94.910156 128.953125 98.957031 C 132.988281 97.597656 141.105469 95.382812 152.820312 94.636719 Z M 152.820312 94.636719 " fill-opacity="1" fill-rule="nonzero"/><path fill="#e5e7e9" d="M 152.820312 94.636719 C 153.710938 91.109375 156.5 79.195312 154.003906 77.675781 C 153.390625 77.300781 152.652344 77.421875 151.976562 77.84375 C 151.496094 78.140625 151.050781 78.582031 150.683594 79.109375 C 150.308594 79.65625 150.019531 80.285156 149.867188 80.949219 C 149.554688 82.320312 149.84375 83.859375 151.183594 85.058594 C 147.371094 84.855469 145.832031 81.253906 148.40625 77.539062 C 148.988281 76.699219 149.714844 75.988281 150.515625 75.492188 C 152.042969 74.539062 153.820312 74.328125 155.445312 75.316406 C 159.25 77.628906 156.808594 89.796875 155.703125 94.488281 C 156.539062 94.457031 157.386719 94.429688 158.253906 94.410156 C 159.492188 90.339844 162.371094 79.59375 159.519531 75.855469 C 155.972656 71.207031 146.113281 70.210938 145.449219 77.628906 C 144.78125 85.046875 151.984375 87.371094 151.984375 87.371094 L 149.695312 94.878906 C 150.707031 94.789062 151.746094 94.707031 152.820312 94.636719 Z M 202.550781 100.222656 C 203.359375 100.441406 204.171875 100.664062 204.992188 100.898438 C 206.882812 97.734375 213.578125 85.914062 209.777344 82.707031 C 206.152344 79.652344 204.195312 87.457031 204.191406 87.480469 C 200.078125 83.621094 206.0625 75.953125 211.566406 80.597656 C 216.734375 84.953125 210.191406 97.4375 207.730469 101.695312 C 209.394531 102.195312 211.082031 102.722656 212.789062 103.285156 C 214.261719 98.644531 217.535156 86.785156 214.480469 80.507812 C 210.714844 72.757812 200.296875 75.964844 200.964844 83.714844 C 201.628906 91.464844 204.570312 86.253906 205.507812 91.023438 C 206.109375 94.105469 204.035156 98.050781 202.550781 100.222656 Z M 260.503906 125.144531 C 261.472656 125.707031 262.445312 126.285156 263.425781 126.871094 C 265.453125 122.359375 272.089844 108.941406 280.351562 106.289062 C 291.160156 102.820312 288.632812 111.570312 285.167969 112.042969 C 285.171875 112.03125 287.539062 106.886719 281.195312 108.921875 C 273.785156 111.300781 267.519531 124.4375 265.8125 128.3125 C 266.605469 128.796875 267.402344 129.285156 268.199219 129.785156 C 270.136719 126.15625 275.390625 116.652344 278.863281 113.71875 C 283.183594 110.066406 284.734375 118.257812 284.734375 118.257812 C 284.734375 118.257812 291.273438 114.9375 291.496094 106.964844 C 291.714844 98.996094 281.078125 96.226562 272.65625 103.976562 C 266.242188 109.882812 262.007812 120.621094 260.503906 125.144531 Z M 260.503906 125.144531 " fill-opacity="1" fill-rule="nonzero"/><path fill="#e5e7e9" d="M 155.066406 13.121094 C 146.589844 12.023438 135.121094 13.769531 122.671875 24.792969 C 113.683594 32.746094 110.96875 42.101562 111.882812 50.769531 C 112.28125 54.578125 113.382812 58.265625 114.960938 61.65625 C 116.542969 65.050781 118.597656 68.136719 120.902344 70.738281 C 123.898438 74.117188 127.300781 76.667969 130.597656 77.988281 C 129.019531 73.523438 114.59375 57.117188 124.621094 38.101562 C 135.496094 17.484375 167.835938 24.152344 169.386719 24.152344 C 165.035156 19.296875 160.171875 15.675781 155.066406 13.121094 Z M 155.066406 13.121094 " fill-opacity="1" fill-rule="nonzero"/><path fill="#e5e7e9" d="M 298.886719 136.921875 L 300.339844 137.1875 C 300.429688 137.207031 331.847656 143.324219 347.34375 116.234375 C 348.292969 114.574219 349.167969 112.859375 349.960938 111.101562 C 355.644531 98.496094 356.933594 84.085938 353.195312 70.769531 C 349.460938 57.472656 340.691406 45.253906 326.25 37.007812 C 324.367188 35.933594 322.394531 34.929688 320.335938 34.003906 C 308.71875 28.773438 299.398438 26.605469 292.09375 26.070312 C 310.410156 37.078125 337.277344 57.804688 334.328125 83.4375 C 329.898438 121.964844 298.886719 136.921875 298.886719 136.921875 Z M 298.886719 136.921875 " fill-opacity="1" fill-rule="nonzero"/><path fill="#fbfcfc" d="M 283.296875 172.238281 C 285.570312 169.027344 290.96875 161.007812 294.144531 153.011719 C 294.351562 152.484375 294.554688 151.96875 294.746094 151.472656 C 288.566406 146.792969 282.550781 142.5 276.695312 138.570312 C 270.300781 134.277344 264.074219 130.398438 258.023438 126.902344 C 181.679688 82.738281 133.300781 100.085938 127.667969 102.371094 C 125.476562 108.644531 124.199219 115.15625 124.550781 122.988281 C 177.949219 111.15625 241.453125 137.824219 283.296875 172.238281 Z M 283.296875 172.238281 " fill-opacity="1" fill-rule="nonzero"/><path fill="#e5e7e9" d="M 283.296875 172.238281 C 285.378906 169.300781 290.074219 162.332031 293.289062 155.042969 C 234.753906 105.035156 193.546875 105.636719 193.546875 105.636719 C 193.546875 105.636719 210.167969 108.070312 238.753906 127.777344 C 267.34375 147.484375 267.789062 154.128906 267.789062 154.128906 C 223.96875 123.480469 176.488281 105.277344 124.660156 116.203125 C 124.488281 118.363281 124.445312 120.617188 124.550781 122.988281 C 177.949219 111.15625 241.453125 137.824219 283.296875 172.238281 Z M 283.296875 172.238281 " fill-opacity="1" fill-rule="nonzero"/><path fill="#6e2c00" d="M 275.046875 216.015625 C 277.410156 211.882812 280.164062 205.410156 281.5 196.246094 C 283.761719 180.703125 282.480469 175.851562 282.105469 174.847656 C 279.972656 173.058594 263.53125 159.535156 239.132812 146.714844 C 241.371094 151.949219 244.136719 161.566406 242.738281 175.328125 C 240.988281 192.554688 236.527344 203.265625 234.785156 206.90625 L 243.988281 210.558594 C 245.09375 205.628906 247.425781 200.144531 250.964844 196.207031 C 254.15625 192.65625 258.3125 190.339844 263.425781 190.699219 L 263.433594 190.699219 C 264.914062 190.804688 266.246094 191.09375 267.4375 191.539062 C 271.148438 192.917969 273.402344 195.75 274.644531 199.253906 C 275.828125 202.589844 276.078125 206.527344 275.808594 210.347656 C 275.671875 212.292969 275.398438 214.214844 275.046875 216.015625 Z M 275.046875 216.015625 " fill-opacity="1" fill-rule="nonzero"/><path fill="#5e2804" d="M 282.601562 186.476562 C 283.175781 178.515625 282.386719 175.601562 282.105469 174.847656 C 279.972656 173.058594 263.53125 159.535156 239.132812 146.714844 C 239.820312 148.328125 240.5625 150.359375 241.214844 152.800781 C 245.6875 155.214844 262.003906 166.363281 272.214844 175.6875 C 275.996094 179.140625 279.539062 182.929688 282.601562 186.476562 Z M 282.601562 186.476562 " fill-opacity="1" fill-rule="nonzero"/><path fill="#fcbd88" d="M 124.398438 125.847656 C 123.140625 126.445312 116.769531 134.148438 110.980469 145.132812 C 107.460938 151.808594 104.261719 159.640625 102.734375 167.746094 L 98.402344 190.707031 L 97.996094 191.453125 C 90.09375 198.984375 86.324219 206.859375 85.253906 214.378906 C 84.304688 221.023438 85.453125 227.410156 87.707031 233.046875 C 89.96875 238.710938 93.347656 243.625 96.847656 247.289062 C 100.546875 251.167969 104.300781 253.59375 106.894531 253.964844 L 107.824219 254.09375 L 108.046875 255.007812 C 109.960938 262.90625 113.847656 268.941406 118.992188 273.4375 C 126.277344 279.804688 136.117188 283.132812 146.480469 284.304688 C 156.945312 285.492188 167.917969 284.488281 177.363281 282.203125 C 187.785156 279.683594 196.28125 275.640625 200.074219 271.308594 L 200.824219 270.453125 L 201.808594 271.023438 C 201.878906 271.0625 225.902344 285.320312 252.164062 268.804688 C 272.523438 255.996094 272.316406 235.402344 271.226562 226.910156 C 270.609375 227.980469 269.917969 229.011719 269.167969 229.980469 C 267 232.769531 264.304688 235.0625 261.289062 236.363281 L 261.289062 236.359375 C 257.832031 237.851562 249.023438 237.40625 248.515625 231.992188 C 249.765625 232.964844 251.011719 233.65625 252.238281 234.105469 C 255.011719 235.121094 257.726562 234.890625 260.195312 233.820312 L 260.195312 233.816406 C 262.753906 232.710938 265.078125 230.71875 266.976562 228.277344 C 270.929688 223.195312 272.597656 216.460938 273.042969 210.152344 C 273.289062 206.667969 273.078125 203.113281 272.035156 200.175781 C 271.050781 197.40625 269.308594 195.183594 266.472656 194.125 C 265.535156 193.777344 264.460938 193.546875 263.238281 193.460938 C 259.097656 193.171875 255.679688 195.105469 253.023438 198.058594 C 249.460938 202.027344 247.234375 207.796875 246.390625 212.691406 L 246.101562 214.371094 L 244.515625 213.738281 L 232.359375 208.914062 L 230.894531 208.332031 L 231.660156 206.960938 C 231.679688 206.929688 237.847656 196.058594 239.984375 175.054688 C 241.734375 157.824219 236.769531 147.605469 235.011719 144.597656 C 205.246094 129.628906 164.921875 116.59375 124.398438 125.847656 Z M 127.542969 187.84375 L 127.515625 187.855469 C 128.894531 188.550781 130.347656 190.023438 129.542969 192.570312 C 129.484375 192.511719 129.425781 192.453125 129.367188 192.390625 C 121.398438 184.425781 104.742188 190.246094 103.6875 190.160156 C 107.433594 186.816406 111.296875 185.910156 116.347656 185.652344 C 115.496094 184.726562 114.695312 183.5625 113.984375 182.117188 C 111.21875 176.472656 113.03125 169.695312 116.617188 165.136719 C 117.792969 163.644531 119.164062 162.378906 120.632812 161.457031 C 122.160156 160.5 123.800781 159.910156 125.445312 159.808594 C 128.695312 159.613281 131.867188 161.265625 134.164062 165.664062 C 135.746094 168.691406 135.863281 172.316406 135.085938 175.808594 C 134.15625 180.011719 131.6875 185.8125 127.542969 187.84375 Z M 198.792969 181.574219 C 192.957031 180.796875 185.425781 180.09375 180.503906 181.855469 C 187.578125 182.039062 195.207031 186.335938 198.792969 193.054688 C 187.054688 182.890625 162.480469 185.613281 160.671875 188.25 C 168.640625 176.617188 190.835938 176.226562 204.355469 182.101562 Z M 268.917969 205.328125 C 268.902344 205.308594 263.992188 197.988281 257.339844 203.152344 C 255.945312 204.234375 254.824219 205.5625 253.945312 207.027344 C 253.402344 207.929688 252.949219 208.890625 252.578125 209.886719 C 260.085938 205.144531 264.054688 215.378906 261.660156 219.347656 C 261.648438 219.308594 257.792969 206.4375 251.324219 215.144531 C 251.140625 216.683594 251.105469 218.203125 251.195312 219.613281 C 251.511719 224.691406 254.527344 231.089844 259.289062 224.269531 C 262.402344 228.964844 249.488281 236.640625 248.429688 219.789062 C 248.273438 217.296875 248.453125 214.523438 249.097656 211.8125 C 249.609375 209.667969 250.410156 207.542969 251.570312 205.609375 C 252.625 203.851562 253.96875 202.261719 255.636719 200.964844 C 261.6875 196.269531 269.449219 199.757812 268.917969 205.328125 Z M 162.617188 243.933594 C 159.914062 247.679688 156.097656 250.902344 151.792969 252.917969 C 147.597656 254.878906 142.933594 255.703125 138.347656 254.777344 C 135.679688 254.238281 132.921875 253.214844 130.371094 251.773438 C 127.945312 250.40625 125.707031 248.667969 123.902344 246.625 C 123.015625 245.617188 122.226562 244.527344 121.5625 243.355469 L 121.5625 243.351562 C 121.101562 242.53125 120.703125 241.675781 120.378906 240.792969 C 117.796875 240.691406 114.875 240.285156 111.550781 239.414062 C 101.867188 236.875 94.167969 228.90625 96.066406 218.636719 C 99.679688 221.644531 100.621094 223.347656 105.691406 225.488281 C 108.46875 226.664062 111.152344 227 113.53125 226.761719 C 116.234375 226.492188 118.523438 225.484375 120.0625 224.144531 C 121.492188 222.898438 123.128906 222.113281 124.585938 221.613281 C 123.027344 220.457031 121.761719 218.910156 121.027344 217.027344 C 120.4375 215.523438 120.183594 213.8125 120.390625 211.933594 C 121.289062 203.71875 125.65625 201.007812 130.148438 198.21875 C 131.828125 197.179688 133.523438 196.125 134.972656 194.765625 C 139.597656 190.4375 136.144531 182.179688 136.136719 182.152344 C 141.828125 187.046875 139.894531 193.953125 136.871094 196.78125 C 135.210938 198.335938 133.402344 199.460938 131.613281 200.570312 C 127.699219 203 123.894531 205.359375 123.144531 212.226562 C 122.988281 213.644531 123.171875 214.914062 123.605469 216.023438 C 124.179688 217.484375 125.195312 218.675781 126.449219 219.546875 C 127.734375 220.433594 129.265625 220.992188 130.835938 221.164062 C 132.25 221.316406 133.691406 221.160156 135.003906 220.648438 C 136.296875 220.140625 137.335938 219.570312 138.230469 219.074219 C 141.90625 217.050781 143.671875 216.078125 150.191406 221.722656 C 150.933594 222.367188 151.769531 222.75 152.625 222.917969 C 153.710938 223.125 154.839844 222.984375 155.886719 222.582031 C 156.964844 222.167969 157.949219 221.480469 158.707031 220.605469 C 159.410156 219.796875 159.917969 218.824219 160.121094 217.765625 C 160.921875 213.597656 158.855469 212.605469 158.851562 212.601562 C 162.378906 212.570312 163.335938 215.722656 162.84375 218.285156 C 162.542969 219.839844 161.8125 221.25 160.800781 222.414062 L 160.671875 222.558594 C 160.816406 222.664062 160.964844 222.777344 161.117188 222.898438 C 162.445312 223.917969 164.5625 225.546875 170.03125 225.964844 C 179.320312 226.679688 188.039062 222.90625 196.832031 220.613281 C 193.15625 230.78125 182.625 240.035156 172.371094 242.824219 C 169.070312 243.722656 165.785156 244.023438 162.617188 243.933594 Z M 162.617188 243.933594 " fill-opacity="1" fill-rule="nonzero"/><path fill="#f2a668" d="M 105.421875 189.796875 C 109.046875 189.699219 122.441406 189.085938 129.542969 192.570312 C 129.484375 192.511719 129.425781 192.453125 129.367188 192.390625 C 122.734375 185.761719 110.085938 188.679688 105.421875 189.796875 Z M 105.421875 189.796875 " fill-opacity="1" fill-rule="nonzero"/><path fill="#f2a668" d="M 123.152344 214.214844 C 125.027344 216.53125 129.035156 220.234375 134.589844 218.671875 C 142.457031 216.457031 143.175781 214.851562 148.9375 217.730469 C 154.699219 220.609375 158.925781 219.507812 160.082031 214.332031 C 160.320312 215.113281 160.417969 216.222656 160.121094 217.765625 C 159.917969 218.824219 159.410156 219.796875 158.707031 220.605469 C 157.949219 221.480469 156.964844 222.167969 155.886719 222.582031 C 154.839844 222.984375 153.707031 223.125 152.625 222.917969 C 151.769531 222.75 150.933594 222.367188 150.191406 221.722656 C 143.671875 216.078125 141.90625 217.050781 138.230469 219.074219 C 137.332031 219.570312 136.296875 220.140625 135 220.648438 C 133.691406 221.160156 132.25 221.316406 130.835938 221.164062 C 129.265625 220.992188 127.734375 220.433594 126.449219 219.546875 C 125.195312 218.675781 124.179688 217.484375 123.605469 216.023438 C 123.386719 215.460938 123.230469 214.859375 123.152344 214.214844 Z M 123.152344 214.214844 " fill-opacity="1" fill-rule="nonzero"/><path fill="#f2a668" d="M 266.804688 203.109375 C 267.007812 203.558594 267.171875 204.074219 267.285156 204.667969 C 268.113281 209.152344 265.621094 213.027344 265.621094 213.027344 C 265.621094 213.027344 265.21875 210.34375 261.855469 209.761719 C 261.054688 209.621094 260.433594 209.832031 259.960938 210.269531 C 258.265625 208.546875 255.734375 207.890625 252.578125 209.886719 C 252.949219 208.890625 253.402344 207.929688 253.945312 207.027344 C 254.824219 205.5625 255.945312 204.234375 257.339844 203.152344 C 261.367188 200.027344 264.757812 201.476562 266.804688 203.109375 Z M 258.75 213.773438 C 258.675781 215.175781 258.875 216.683594 259.25 217.84375 C 259.894531 219.851562 258.703125 224.699219 256.515625 226.957031 C 253.375 228.445312 251.445312 223.621094 251.191406 219.613281 C 251.105469 218.203125 251.136719 216.6875 251.320312 215.144531 C 254.457031 210.925781 256.980469 211.773438 258.75 213.773438 Z M 258.75 213.773438 " fill-opacity="1" fill-rule="nonzero"/><path fill="#f2a668" d="M 193.25 203.144531 C 187.925781 200.523438 175.304688 195.625 161.800781 196.804688 C 167.863281 193.90625 179.808594 190.949219 193.25 203.144531 Z M 193.25 203.144531 " fill-opacity="1" fill-rule="nonzero"/><path fill="#f2a668" d="M 195.484375 223.726562 C 198.726562 243.753906 179.585938 249.40625 163.210938 247.046875 C 163.210938 247.046875 158 259.117188 142.597656 258.339844 C 132.652344 257.839844 127.304688 251.777344 124.765625 247.542969 C 126.398438 249.191406 128.320312 250.617188 130.371094 251.773438 C 132.921875 253.214844 135.679688 254.238281 138.347656 254.777344 C 142.933594 255.703125 147.597656 254.878906 151.789062 252.917969 C 156.097656 250.902344 159.914062 247.679688 162.617188 243.933594 C 165.785156 244.023438 169.070312 243.722656 172.371094 242.824219 C 181.566406 240.324219 190.984375 232.621094 195.484375 223.726562 Z M 121.609375 243.4375 C 117.363281 243.304688 103.140625 242.027344 98.808594 231.050781 C 101.679688 235.09375 106.328125 238.042969 111.550781 239.414062 C 114.875 240.285156 117.796875 240.691406 120.378906 240.792969 C 120.703125 241.675781 121.101562 242.53125 121.5625 243.351562 L 121.5625 243.355469 Z M 121.609375 243.4375 " fill-opacity="1" fill-rule="nonzero"/><path fill="#f2a668" d="M 85.082031 215.8125 C 84.476562 221.941406 85.613281 227.816406 87.707031 233.046875 C 89.96875 238.710938 93.347656 243.625 96.847656 247.289062 C 100.546875 251.167969 104.300781 253.59375 106.894531 253.964844 L 107.824219 254.09375 L 108.046875 255.007812 C 109.960938 262.90625 113.847656 268.941406 118.992188 273.4375 C 126.277344 279.804688 136.117188 283.132812 146.480469 284.304688 C 156.945312 285.492188 167.917969 284.488281 177.363281 282.203125 C 187.785156 279.683594 196.28125 275.640625 200.074219 271.308594 L 200.824219 270.453125 L 201.808594 271.023438 C 201.878906 271.0625 225.902344 285.320312 252.160156 268.804688 C 272.523438 255.996094 272.316406 235.402344 271.226562 226.910156 C 270.609375 227.980469 269.917969 229.011719 269.164062 229.980469 C 268.808594 230.441406 268.433594 230.890625 268.046875 231.320312 C 267.722656 236.386719 264.085938 253.34375 253.4375 260.660156 C 241.023438 269.183594 229.613281 271.84375 217.976562 268.632812 C 206.34375 265.421875 202.351562 261.546875 202.351562 261.546875 C 202.351562 261.546875 174.0625 285.230469 143.625 276.050781 C 113.183594 266.867188 112.820312 250.140625 112.820312 250.140625 C 112.820312 250.140625 91.402344 245.027344 85.082031 215.8125 Z M 85.082031 215.8125 " fill-opacity="1" fill-rule="nonzero"/><path fill="#f2a668" d="M 248.53125 232.003906 C 249.777344 232.96875 251.019531 233.660156 252.234375 234.105469 C 255.011719 235.121094 257.726562 234.886719 260.195312 233.820312 L 260.195312 233.816406 C 262.753906 232.710938 265.078125 230.71875 266.976562 228.277344 C 270.929688 223.195312 272.597656 216.460938 273.042969 210.152344 C 273.289062 206.667969 273.078125 203.113281 272.035156 200.175781 C 271.050781 197.40625 269.308594 195.183594 266.472656 194.125 C 266.085938 193.980469 265.671875 193.859375 265.234375 193.753906 C 267.90625 196.480469 270.902344 200.800781 271.664062 207.601562 C 273.105469 220.445312 262.910156 232.179688 256.59375 231.847656 C 250.277344 231.515625 247.949219 227.75 247.949219 227.75 C 247.949219 227.75 247.6875 229.914062 248.527344 232.003906 Z M 248.53125 232.003906 " fill-opacity="1" fill-rule="nonzero"/><path fill="#f2a668" d="M 124.398438 125.847656 C 123.875 126.097656 122.460938 127.582031 120.574219 130.023438 C 142.972656 126.339844 185.417969 125.195312 238.007812 151.597656 C 236.917969 148.132812 235.710938 145.792969 235.011719 144.597656 C 205.246094 129.628906 164.921875 116.59375 124.398438 125.847656 Z M 124.398438 125.847656 " fill-opacity="1" fill-rule="nonzero"/><path fill="#c0392b" d="M 139.117188 291.632812 C 136.808594 289.511719 134.464844 288.417969 132.246094 288.167969 C 130.8125 288.007812 129.421875 288.199219 128.117188 288.6875 C 126.789062 289.1875 125.539062 290 124.421875 291.070312 C 121.691406 293.6875 119.734375 297.8125 119.179688 302.738281 C 118.816406 305.964844 119.214844 308.800781 120.171875 311.257812 C 121.6875 315.136719 124.625 318.125 128.214844 320.269531 C 131.871094 322.453125 136.203125 323.757812 140.417969 324.230469 C 144.761719 324.71875 148.949219 324.320312 152.101562 323.09375 L 152.101562 323.089844 C 152.757812 322.835938 153.402344 322.503906 154.027344 322.101562 C 156.984375 320.199219 159.488281 316.800781 160.859375 312.816406 C 162.230469 308.824219 162.445312 304.277344 160.8125 300.09375 C 160.425781 299.101562 159.929688 298.125 159.316406 297.171875 C 158.742188 296.285156 158.082031 295.433594 157.320312 294.628906 C 156.59375 293.859375 155.746094 293.109375 154.773438 292.382812 C 152.167969 290.441406 149.785156 289.675781 147.675781 289.796875 C 145.339844 289.929688 143.261719 291.15625 141.542969 293.054688 C 138.890625 295.984375 137.082031 301.054688 135.992188 304.765625 C 135.613281 300.390625 135.050781 296.433594 139.117188 291.632812 Z M 139.117188 291.632812 " fill-opacity="1" fill-rule="nonzero"/><path fill="#922b21" d="M 122.570312 293.242188 C 120.820312 295.746094 119.597656 299.011719 119.179688 302.738281 C 118.816406 305.964844 119.214844 308.800781 120.171875 311.257812 C 121.6875 315.136719 124.625 318.125 128.214844 320.269531 C 131.871094 322.453125 136.203125 323.757812 140.417969 324.230469 C 144.761719 324.71875 148.949219 324.320312 152.101562 323.09375 L 152.101562 323.089844 C 152.757812 322.835938 153.402344 322.503906 154.027344 322.101562 C 156.984375 320.199219 159.488281 316.800781 160.859375 312.816406 C 162.230469 308.824219 162.445312 304.277344 160.8125 300.09375 C 160.425781 299.101562 159.929688 298.125 159.316406 297.171875 C 158.742188 296.285156 158.082031 295.433594 157.320312 294.628906 C 156.59375 293.859375 155.746094 293.109375 154.773438 292.382812 C 152.167969 290.441406 149.785156 289.675781 147.675781 289.796875 C 147.078125 289.832031 146.492188 289.9375 145.929688 290.109375 C 148.464844 291.5 152.5625 295.035156 153.316406 303.558594 C 154.425781 316.070312 146.890625 320.828125 142.566406 319.945312 C 138.246094 319.058594 137.136719 313.078125 137.136719 313.078125 C 137.136719 313.078125 135.363281 316.621094 135.585938 318.285156 C 135.808594 319.945312 123.996094 313.773438 122.398438 305.109375 C 121.449219 299.953125 121.984375 295.777344 122.570312 293.242188 Z M 122.570312 293.242188 " fill-opacity="1" fill-rule="nonzero"/><path fill="#c0392b" d="M 164.242188 301.878906 C 171.371094 301.484375 207.707031 299.882812 212.148438 308.261719 C 216.59375 316.652344 192.347656 316.941406 183 310.703125 C 183.085938 310.71875 212.886719 315.566406 209.699219 309.550781 C 206.074219 302.710938 172.152344 304.210938 164.660156 304.628906 C 164.917969 307.746094 164.460938 310.859375 163.480469 313.714844 C 163.289062 314.273438 163.074219 314.824219 162.84375 315.363281 C 166.015625 318.796875 182.074219 334.683594 207.21875 333.8125 C 228.539062 333.074219 238.914062 325.953125 242.707031 322.527344 C 238.925781 321.59375 232.261719 318.519531 228.128906 308.433594 C 225.179688 301.242188 220.851562 295.046875 214.757812 291.449219 C 209.597656 288.398438 203.113281 287.195312 195.042969 288.804688 C 179.910156 291.832031 167.25 297.449219 163.445312 299.242188 C 163.777344 300.113281 164.039062 300.992188 164.242188 301.878906 Z M 164.242188 301.878906 " fill-opacity="1" fill-rule="nonzero"/><path fill="#922b21" d="M 164.242188 301.878906 C 171.371094 301.484375 207.707031 299.882812 212.148438 308.261719 C 216.59375 316.652344 192.347656 316.941406 183 310.703125 C 183.085938 310.71875 212.886719 315.566406 209.699219 309.550781 C 206.074219 302.710938 172.152344 304.210938 164.660156 304.628906 C 164.796875 306.261719 164.734375 307.894531 164.503906 309.488281 C 168.171875 309.058594 176.46875 308.261719 176.640625 309.8125 C 176.863281 311.804688 174.867188 312.582031 184.066406 317.5625 C 193.261719 322.542969 213.652344 322.214844 216.421875 317.230469 C 227.828125 296.714844 179.4375 296.621094 163.863281 300.460938 C 164.007812 300.929688 164.132812 301.40625 164.242188 301.878906 Z M 164.242188 301.878906 " fill-opacity="1" fill-rule="nonzero"/><path fill="#c0392b" d="M 230.417969 306.738281 C 230.570312 306.773438 230.71875 306.808594 230.871094 306.84375 C 240.503906 308.980469 250.277344 306.242188 257.972656 301.722656 C 265.625 297.230469 271.167969 291.058594 272.433594 286.230469 L 272.433594 286.226562 C 272.472656 286.082031 272.5 285.972656 272.515625 285.902344 C 274 279.226562 271.679688 276.738281 270.296875 275.875 C 267.980469 279.527344 264.378906 283.195312 259.914062 286.3125 C 253.492188 290.789062 244.675781 293.171875 235.90625 293.734375 C 241.046875 291.078125 250.222656 289.703125 258.328125 284.046875 C 265.089844 279.332031 269.671875 273.394531 270.332031 268.546875 C 271.167969 262.378906 269.140625 258.851562 267.785156 257.238281 C 264.652344 262.234375 260.128906 267.0625 253.636719 271.144531 C 229.082031 286.589844 206.289062 276.464844 201.390625 273.941406 C 196.953125 278.375 188.339844 282.390625 178.011719 284.890625 C 169.78125 286.878906 160.425781 287.925781 151.214844 287.464844 C 152.886719 287.945312 154.632812 288.820312 156.433594 290.164062 C 157.496094 290.957031 158.457031 291.816406 159.328125 292.734375 C 160.226562 293.6875 161 294.671875 161.644531 295.675781 C 161.871094 296.023438 162.082031 296.378906 162.28125 296.734375 C 166.210938 294.886719 179.117188 289.160156 194.503906 286.085938 C 203.300781 284.328125 210.4375 285.679688 216.167969 289.066406 C 222.648438 292.894531 227.261719 299.304688 230.417969 306.738281 Z M 230.417969 306.738281 " fill-opacity="1" fill-rule="nonzero"/><path fill="#922b21" d="M 272.722656 284.867188 C 273.753906 278.96875 271.605469 276.691406 270.296875 275.875 C 267.980469 279.527344 264.378906 283.195312 259.914062 286.3125 C 253.492188 290.789062 244.675781 293.171875 235.90625 293.734375 C 235.90625 293.734375 246.726562 297.882812 260.746094 292.679688 C 266.222656 290.648438 270.042969 287.726562 272.722656 284.867188 Z M 272.722656 284.867188 " fill-opacity="1" fill-rule="nonzero"/><path fill="#922b21" d="M 270.441406 264.03125 C 270.101562 260.578125 268.765625 258.40625 267.785156 257.238281 C 264.652344 262.234375 260.125 267.0625 253.636719 271.144531 C 229.082031 286.589844 206.289062 276.464844 201.390625 273.941406 C 196.953125 278.375 188.335938 282.390625 178.011719 284.890625 C 169.78125 286.878906 160.425781 287.925781 151.214844 287.464844 C 152.886719 287.945312 154.632812 288.820312 156.429688 290.164062 C 157.496094 290.957031 158.457031 291.816406 159.324219 292.734375 C 160.226562 293.6875 160.996094 294.671875 161.644531 295.675781 C 161.871094 296.023438 162.082031 296.378906 162.28125 296.734375 C 166.210938 294.886719 179.117188 289.160156 194.5 286.085938 C 194.703125 286.046875 194.90625 286.007812 195.109375 285.972656 C 199.539062 283.519531 201.1875 281.527344 201.1875 281.527344 C 201.1875 281.527344 223.683594 290.492188 245.179688 283.1875 C 256.230469 279.429688 264.757812 271.171875 270.441406 264.027344 Z M 270.441406 264.03125 " fill-opacity="1" fill-rule="nonzero"/><path fill="#c0392b" d="M 106.570312 281.167969 C 109.386719 282.523438 112.15625 284.964844 113.199219 289.378906 C 114.214844 293.667969 113.109375 298.136719 110.929688 302.363281 C 108.132812 307.769531 103.542969 312.808594 99.453125 316.5 C 99.078125 316.84375 98.683594 317.191406 98.304688 317.511719 C 95.015625 320.300781 88.816406 324.871094 80.921875 327.953125 C 88.320312 329.257812 96.808594 329.507812 104.230469 327.398438 C 110.582031 325.59375 116.140625 322.035156 119.488281 315.886719 C 118.738281 314.761719 118.097656 313.550781 117.59375 312.253906 C 116.476562 309.394531 116.011719 306.125 116.429688 302.433594 C 117.035156 297.019531 119.1875 292.40625 122.21875 289.359375 C 120.5625 286.960938 115.222656 280.417969 106.570312 281.167969 Z M 106.570312 281.167969 " fill-opacity="1" fill-rule="nonzero"/><path fill="#922b21" d="M 106.570312 281.167969 C 109.386719 282.523438 112.15625 284.964844 113.199219 289.378906 C 114.214844 293.667969 113.109375 298.136719 110.929688 302.363281 C 108.132812 307.769531 103.542969 312.808594 99.453125 316.5 C 99.078125 316.84375 98.683594 317.191406 98.304688 317.511719 C 95.015625 320.300781 88.816406 324.871094 80.921875 327.953125 C 87.703125 329.152344 95.402344 329.460938 102.351562 327.878906 C 118.5625 305.902344 117.570312 290.835938 114.863281 285.484375 C 113.839844 283.460938 112.316406 282.183594 110.773438 281.375 C 109.472656 281.125 108.070312 281.035156 106.570312 281.167969 Z M 106.570312 281.167969 " fill-opacity="1" fill-rule="nonzero"/><path fill="#fcbd88" d="M 53.867188 230.394531 C 53.761719 227.960938 52.511719 220.449219 41.972656 210.769531 C 39.441406 208.445312 37.058594 207.105469 34.902344 206.519531 C 33.136719 206.039062 31.53125 206.074219 30.140625 206.488281 C 28.765625 206.894531 27.574219 207.679688 26.628906 208.707031 C 25.640625 209.78125 24.917969 211.125 24.519531 212.589844 C 23.570312 216.082031 25.636719 221.066406 27.535156 225.65625 C 28.351562 227.621094 29.140625 229.523438 29.679688 231.269531 C 30.445312 233.75 31.117188 236.148438 31.691406 238.207031 C 32.191406 239.996094 32.617188 241.511719 32.921875 242.527344 C 33.171875 242.304688 33.425781 242.085938 33.683594 241.871094 C 39.234375 237.164062 46.015625 233.25 53.867188 230.394531 Z M 53.867188 230.394531 " fill-opacity="1" fill-rule="nonzero"/><path fill="#f2a668" d="M 25.671875 209.960938 C 25.164062 210.761719 24.773438 211.648438 24.519531 212.589844 C 23.570312 216.082031 25.636719 221.070312 27.535156 225.65625 C 28.351562 227.625 29.140625 229.523438 29.679688 231.269531 C 30.445312 233.75 31.117188 236.148438 31.691406 238.207031 C 32.191406 240 32.617188 241.511719 32.921875 242.527344 C 33.171875 242.304688 33.425781 242.085938 33.683594 241.871094 C 36.878906 239.160156 40.488281 236.710938 44.46875 234.578125 C 43.539062 230.304688 40.441406 222.703125 30.410156 213.488281 C 28.773438 211.988281 27.191406 210.828125 25.671875 209.960938 Z M 25.671875 209.960938 " fill-opacity="1" fill-rule="nonzero"/><path fill="#6e2c00" d="M 130.128906 145.472656 C 133.027344 146.859375 138.804688 152.335938 137.652344 158.667969 C 137.347656 158.773438 129.46875 147.671875 118.375 155.433594 L 116.226562 156.941406 C 116.15625 150.917969 118.207031 145.78125 124.734375 144.683594 C 126.449219 144.394531 128.289062 144.59375 130.128906 145.472656 Z M 130.128906 145.472656 " fill-opacity="1" fill-rule="nonzero"/><path fill="#6e2c00" d="M 158.316406 224.46875 C 157.859375 224.738281 157.378906 224.96875 156.886719 225.160156 C 155.367188 225.742188 153.707031 225.941406 152.105469 225.632812 C 150.789062 225.382812 149.515625 224.796875 148.378906 223.8125 C 143.320312 219.433594 142.101562 220.101562 139.5625 221.5 C 138.597656 222.035156 137.476562 222.652344 136.007812 223.226562 C 134.273438 223.902344 132.382812 224.117188 130.542969 223.914062 C 129.878906 223.84375 129.222656 223.714844 128.578125 223.539062 C 127.71875 223.617188 124.378906 224.050781 121.882812 226.222656 C 119.9375 227.917969 117.101562 229.183594 113.800781 229.511719 C 111.003906 229.792969 107.855469 229.402344 104.617188 228.035156 C 102.140625 226.988281 100.304688 225.894531 98.972656 224.921875 C 100.082031 228.734375 103.242188 234.378906 112.246094 236.738281 C 122.371094 239.390625 128.496094 237.386719 132.664062 236.019531 C 134.75 235.335938 136.402344 234.796875 138.011719 234.953125 C 139.292969 235.082031 141.15625 235.769531 143.558594 236.652344 C 150.109375 239.070312 160.9375 243.0625 171.644531 240.148438 C 181.761719 237.398438 188.402344 229.558594 191.46875 225.121094 C 186.332031 226.71875 176.816406 229.261719 169.824219 228.726562 C 163.539062 228.242188 161.011719 226.304688 159.425781 225.085938 C 158.898438 224.679688 158.5625 224.421875 158.316406 224.46875 Z M 158.316406 224.46875 " fill-opacity="1" fill-rule="nonzero"/><path fill="#5e2804" d="M 99.347656 226.042969 C 100.730469 229.769531 104.089844 234.601562 112.246094 236.738281 C 122.371094 239.390625 128.496094 237.386719 132.664062 236.019531 C 134.75 235.335938 136.402344 234.796875 138.007812 234.953125 C 139.292969 235.082031 141.15625 235.769531 143.558594 236.652344 C 150.109375 239.070312 160.9375 243.0625 171.644531 240.148438 C 181.359375 237.507812 187.871094 230.171875 191.085938 225.664062 C 183.472656 230.082031 174.066406 234.242188 167.503906 234.808594 C 155.976562 235.804688 150.769531 228.71875 140.519531 227.28125 C 130.269531 225.839844 126.335938 235.472656 110.765625 232.429688 C 105.289062 231.359375 101.699219 228.847656 99.347656 226.042969 Z M 99.347656 226.042969 " fill-opacity="1" fill-rule="nonzero"/><path fill="#6e2c00" d="M 128.015625 181.101562 C 127.417969 180.902344 126.789062 180.5625 126.148438 180.042969 L 126.144531 180.042969 C 125.085938 179.175781 124.441406 178 124.144531 176.738281 C 123.832031 175.398438 123.917969 173.949219 124.324219 172.710938 C 124.386719 172.515625 124.457031 172.328125 124.53125 172.152344 C 124.050781 172.480469 123.554688 172.910156 123.050781 173.457031 C 121.828125 174.777344 120.886719 176.535156 120.511719 178.382812 C 120.191406 179.960938 120.292969 181.601562 121.007812 183.058594 C 121.460938 183.980469 121.96875 184.667969 122.507812 185.164062 C 123.265625 185.871094 124.085938 186.179688 124.855469 186.242188 C 125.5 186.292969 126.113281 186.183594 126.628906 185.988281 C 127.070312 185.726562 127.429688 185.445312 127.695312 185.160156 C 128.414062 184.386719 129.109375 183.484375 129.75 182.488281 C 129.96875 182.066406 130.15625 181.648438 130.316406 181.226562 C 129.625 181.382812 128.847656 181.375 128.015625 181.101562 Z M 128.015625 181.101562 " fill-opacity="1" fill-rule="nonzero"/><path fill="#fbfcfc" d="M 127.273438 177.480469 C 127.65625 177.792969 128.011719 177.988281 128.332031 178.09375 C 128.710938 178.21875 129.035156 178.203125 129.296875 178.109375 C 131.339844 177.367188 130.480469 172.140625 128.273438 171.167969 C 128.023438 171.058594 127.785156 171.011719 127.578125 171.039062 C 127.109375 171.105469 126.628906 171.613281 126.269531 172.703125 C 125.984375 173.578125 125.921875 174.601562 126.144531 175.546875 C 126.320312 176.304688 126.6875 176.996094 127.277344 177.476562 Z M 127.273438 177.480469 " fill-opacity="1" fill-rule="nonzero"/><path fill="#fbfcfc" d="M 116.46875 180.90625 C 117.179688 182.351562 117.988281 183.441406 118.84375 184.234375 C 119.234375 184.597656 119.636719 184.898438 120.046875 185.144531 C 119.75 184.726562 119.472656 184.25 119.210938 183.722656 C 118.28125 181.824219 118.136719 179.742188 118.535156 177.765625 C 118.976562 175.59375 120.074219 173.539062 121.488281 172.007812 C 123.886719 169.414062 126.394531 168.773438 128.523438 169.410156 C 129.578125 169.726562 130.519531 170.359375 131.289062 171.230469 C 131.441406 171.398438 131.585938 171.578125 131.722656 171.765625 C 132.109375 172.226562 132.441406 172.777344 132.695312 173.394531 C 132.953125 171.089844 132.703125 168.835938 131.714844 166.941406 C 130.007812 163.675781 127.800781 162.441406 125.609375 162.570312 C 124.445312 162.640625 123.25 163.082031 122.109375 163.796875 C 120.914062 164.546875 119.78125 165.59375 118.796875 166.847656 C 115.78125 170.683594 114.214844 176.3125 116.46875 180.90625 Z M 116.46875 180.90625 " fill-opacity="1" fill-rule="nonzero"/><path fill="#c0392b" d="M 127.59375 246.417969 C 128.847656 247.546875 130.25 248.535156 131.726562 249.371094 C 134.023438 250.664062 136.5 251.585938 138.890625 252.070312 C 142.859375 252.871094 146.933594 252.140625 150.621094 250.414062 C 152.402344 249.582031 154.085938 248.519531 155.625 247.289062 C 143.183594 240.1875 131.71875 244.417969 127.59375 246.417969 Z M 127.59375 246.417969 " fill-opacity="1" fill-rule="nonzero"/><path fill="#fbfcfc" d="M 123.355469 240.777344 C 123.539062 241.191406 123.742188 241.597656 123.96875 241.992188 C 124.5 242.929688 125.140625 243.820312 125.871094 244.664062 C 130.300781 242.46875 143.398438 237.40625 157.503906 245.632812 C 158.140625 245.019531 158.738281 244.371094 159.300781 243.703125 C 152.707031 242.976562 146.8125 240.804688 142.605469 239.253906 C 140.371094 238.429688 138.644531 237.792969 137.742188 237.703125 L 137.738281 237.703125 C 136.71875 237.605469 135.308594 238.066406 133.519531 238.652344 C 130.960938 239.492188 127.707031 240.554688 123.355469 240.777344 Z M 123.355469 240.777344 " fill-opacity="1" fill-rule="nonzero"/><path fill="#fcbd88" d="M 87.769531 262.03125 C 87.816406 261.964844 87.871094 261.890625 87.925781 261.8125 C 88.851562 260.53125 92.304688 255.753906 87.285156 249.460938 C 81.316406 241.972656 74.792969 246.789062 74.144531 247.300781 C 68.253906 252.65625 64.796875 255.230469 60.207031 260.09375 C 61.449219 254.945312 64.929688 251.832031 69.679688 247.59375 C 72.335938 245.21875 73.957031 243.089844 73.746094 239.191406 C 73.640625 237.261719 72.753906 235.777344 71.417969 234.667969 C 69.980469 233.480469 68.019531 232.699219 65.910156 232.257812 C 62.300781 231.507812 58.328125 231.761719 55.6875 232.683594 C 47.78125 235.441406 40.988281 239.304688 35.472656 243.980469 C 28.203125 250.144531 23.160156 257.71875 20.746094 266.039062 C 18.332031 274.351562 18.53125 283.425781 21.746094 292.605469 C 24.003906 299.0625 27.757812 305.578125 33.144531 311.921875 C 33.660156 312.527344 34.128906 313.0625 34.554688 313.535156 C 47.304688 327.613281 60.65625 329.875 71.851562 327.730469 C 83.148438 325.566406 92.316406 318.960938 96.515625 315.398438 C 96.984375 315.003906 97.335938 314.695312 97.601562 314.457031 C 101.488281 310.941406 105.84375 306.171875 108.46875 301.097656 C 110.367188 297.414062 111.34375 293.582031 110.5 290.007812 C 109.710938 286.671875 107.613281 284.769531 105.429688 283.6875 C 102.207031 282.089844 100.242188 281.667969 97.410156 283.523438 C 92.46875 286.761719 90.425781 289.15625 87.539062 294.207031 C 88.085938 286.960938 91.609375 283.730469 98.203125 279.757812 C 101.007812 277.207031 101.707031 274.414062 101.179688 271.898438 C 100.890625 270.515625 100.234375 269.195312 99.355469 268.03125 C 98.464844 266.84375 97.34375 265.820312 96.140625 265.054688 C 93.898438 263.625 91.421875 263.089844 89.746094 264.09375 C 89.601562 264.179688 89.464844 264.253906 89.335938 264.308594 C 82.28125 268.761719 80.398438 269.695312 72.976562 277.714844 C 74.570312 271.320312 80.394531 266.710938 87.769531 262.03125 Z M 87.769531 262.03125 " fill-opacity="1" fill-rule="nonzero"/><path fill="#f2a668" d="M 87.769531 262.03125 C 87.816406 261.964844 87.871094 261.890625 87.925781 261.8125 C 88.835938 260.554688 92.183594 255.921875 87.539062 249.789062 C 85.335938 250.160156 82.519531 251.292969 79.234375 254.039062 C 71.035156 260.902344 72.976562 277.714844 72.976562 277.714844 C 72.976562 277.714844 72.375 275.78125 75.34375 272.589844 C 78.054688 268.660156 82.519531 265.363281 87.769531 262.03125 Z M 60.207031 260.09375 C 61.449219 254.945312 64.929688 251.832031 69.679688 247.59375 C 72.335938 245.21875 73.957031 243.089844 73.746094 239.191406 C 73.640625 237.261719 72.753906 235.777344 71.417969 234.667969 C 71.335938 234.601562 71.253906 234.535156 71.167969 234.472656 C 69.019531 235.308594 66.566406 236.832031 64.054688 239.535156 C 56.960938 247.175781 60.207031 260.09375 60.207031 260.09375 Z M 87.539062 294.203125 C 88.085938 286.960938 91.609375 283.730469 98.203125 279.757812 C 101.007812 277.207031 101.707031 274.414062 101.179688 271.898438 C 100.953125 270.820312 100.507812 269.785156 99.90625 268.828125 C 97.1875 269.359375 93.652344 270.90625 90.425781 274.964844 C 84 283.046875 87.539062 294.207031 87.539062 294.207031 Z M 87.539062 294.203125 " fill-opacity="1" fill-rule="nonzero"/><path fill="#f2a668" d="M 20.238281 267.953125 C 18.378906 275.738281 18.777344 284.128906 21.746094 292.605469 C 24.003906 299.0625 27.761719 305.578125 33.148438 311.921875 C 33.660156 312.527344 34.128906 313.0625 34.554688 313.535156 C 47.304688 327.613281 60.65625 329.875 71.851562 327.730469 C 83.148438 325.566406 92.316406 318.960938 96.519531 315.398438 C 96.984375 315.003906 97.335938 314.695312 97.601562 314.457031 C 101.488281 310.941406 105.84375 306.171875 108.46875 301.097656 C 110.371094 297.414062 111.34375 293.582031 110.5 290.007812 C 110.464844 289.867188 110.429688 289.734375 110.394531 289.597656 C 99.679688 299.917969 73.125 318.304688 50.820312 306.214844 C 35.054688 297.671875 25.414062 280.359375 20.238281 267.957031 Z M 20.238281 267.953125 " fill-opacity="1" fill-rule="nonzero"/><path fill="#922b21" d="M 102.113281 255.050781 C 100.996094 254.835938 94.5 253.753906 92.679688 257.59375 C 92.511719 258.832031 92.144531 259.917969 91.726562 260.824219 C 93.660156 260.820312 95.738281 261.523438 97.628906 262.726562 C 99.101562 263.667969 100.472656 264.917969 101.570312 266.371094 C 102.679688 267.847656 103.511719 269.539062 103.890625 271.335938 C 104.421875 273.867188 104.066406 276.578125 102.355469 279.167969 C 114.453125 275.601562 121.960938 284.230469 124.34375 287.574219 C 125.230469 286.960938 126.164062 286.464844 127.144531 286.097656 C 128.851562 285.457031 130.675781 285.207031 132.550781 285.417969 C 135.363281 285.734375 138.28125 287.078125 141.082031 289.679688 C 142.738281 288.3125 144.621094 287.402344 146.703125 287.113281 L 146.179688 287.058594 C 135.296875 285.824219 124.925781 282.292969 117.171875 275.515625 C 111.800781 270.824219 107.699219 264.59375 105.574219 256.515625 C 104.507812 256.238281 103.339844 255.742188 102.113281 255.050781 Z M 102.113281 255.050781 " fill-opacity="1" fill-rule="nonzero"/><path fill="#6e2c00" d="M 164.542969 169.078125 C 165.933594 161.042969 177.957031 151.570312 188.339844 153.097656 C 197.410156 154.425781 200.277344 160.378906 199.226562 167.398438 C 182.691406 157.109375 166.832031 167.542969 164.542969 169.078125 Z M 164.542969 169.078125 " fill-opacity="1" fill-rule="nonzero"/><path fill="#e5e7e9" d="M 183.125 17.972656 C 183.125 17.972656 217.507812 6.941406 241.550781 22.300781 C 265.589844 37.664062 266.007812 50.929688 266.007812 50.929688 C 266.007812 50.929688 238.472656 19.230469 183.125 17.972656 Z M 183.125 17.972656 " fill-opacity="1" fill-rule="evenodd"/><path fill="#5e2804" d="M 265.679688 181.335938 C 272.660156 188.199219 275.097656 191.742188 275.097656 191.742188 C 275.097656 191.742188 269 187.203125 262.355469 183.4375 C 255.703125 179.671875 251.160156 178.898438 251.160156 178.898438 L 260.46875 187.3125 C 260.46875 187.3125 252.269531 184.542969 249.5 187.3125 C 246.730469 190.082031 248.835938 193.070312 248.171875 193.734375 C 247.503906 194.398438 244.84375 200.375 244.84375 200.375 L 240.746094 197.828125 C 240.746094 197.828125 246.507812 184.65625 246.953125 182.773438 C 247.394531 180.890625 244.734375 177.128906 244.734375 177.128906 L 249.609375 176.242188 L 244.734375 168.160156 C 252.210938 172.269531 259.308594 175.074219 265.679688 181.335938 Z M 265.679688 181.335938 " fill-opacity="1" fill-rule="evenodd"/><path stroke-linecap="butt" transform="matrix(2.308296, -0.458324, 0.458324, 2.308296, 23.561491, 233.949273)" fill="none" stroke-linejoin="miter" d="M 28.403218 50.107248 C 25.238777 50.106763 23.527106 49.599368 23.26951 48.587014 L 21.468658 41.531458 L 12.775157 41.533124 L 11.201863 48.306256 C 10.979469 49.434839 9.22762 49.999132 5.947944 49.999458 C 4.204752 50.000253 2.910975 49.902441 2.066613 49.70602 C 1.230379 49.502751 0.812838 49.347079 0.813667 49.240631 L 10.481182 12.261739 C 10.481752 11.96909 12.974754 11.822719 17.962139 11.821321 C 22.957665 11.82154 25.456609 11.969111 25.456039 12.26176 L 34.897311 49.293196 C 34.897006 49.541898 34.061983 49.74163 32.390292 49.893696 C 30.718912 50.035669 29.389888 50.106853 28.403218 50.107248 Z M 14.14868 34.598483 L 19.882173 34.598001 L 17.42794 23.290353 L 17.094601 23.290165 Z M 14.14868 34.598483 " stroke="#000000" stroke-width="6.281864" stroke-opacity="1" stroke-miterlimit="4"/><path stroke-linecap="butt" transform="matrix(2.35159, -0.0911795, 0.0911795, 2.35159, 111.638589, 216.227477)" fill="none" stroke-linejoin="miter" d="M 27.20342 49.733218 C 27.203726 49.982396 25.642463 50.106244 22.522887 50.106548 C 19.411603 50.107173 17.854896 49.942164 17.85602 49.613308 L 17.85606 33.718146 C 17.854966 31.904172 17.255588 30.997221 16.054607 30.997166 C 15.441613 30.998315 14.623781 31.398493 13.60111 32.197701 L 13.601536 49.665952 C 13.602316 50.031426 12.04212 50.213454 8.920884 50.213694 C 5.809665 50.212661 4.254309 50.012821 4.253222 49.612451 L 4.254511 31.757228 L 2.894046 31.757633 C 1.693065 31.757578 1.093987 30.500145 1.093559 27.983546 C 1.094102 26.855674 1.311358 25.707965 1.746858 24.543801 C 2.333812 22.943655 3.280122 22.143147 4.587383 22.144001 C 5.903001 22.143518 7.170283 22.489994 8.38757 23.183364 C 9.604857 23.876734 10.34364 24.529957 10.600601 25.142903 C 12.859139 23.144121 15.361377 22.143147 18.108844 22.143366 C 20.856312 22.143584 23.06554 23.001659 24.736528 24.717593 C 26.710011 23.001774 29.078812 22.143466 31.844589 22.142733 C 37.852809 22.143138 40.858777 25.801177 40.859113 33.11838 L 40.857764 49.732751 C 40.858069 49.98193 39.298401 50.1075 36.17723 50.106081 C 33.065947 50.106707 31.510899 49.941762 31.510363 49.612841 L 31.510403 33.71768 C 31.510969 31.90377 30.909867 30.998413 29.710545 30.998422 C 29.052769 30.997835 28.216691 31.397306 27.203908 32.198558 Z M 27.20342 49.733218 " stroke="#000000" stroke-width="6.281864" stroke-opacity="1" stroke-miterlimit="4"/><path stroke-linecap="butt" transform="matrix(2.340971, 0.241131, -0.241131, 2.340971, 217.148839, 213.657056)" fill="none" stroke-linejoin="miter" d="M 2.733712 11.929216 C 2.733903 11.49368 4.306598 11.274951 7.453617 11.274511 C 10.600807 11.275721 12.175181 11.510691 12.175259 11.981241 L 12.17442 22.583899 C 13.747717 22.290019 14.858996 22.143848 15.508088 22.143734 C 23.153825 22.143788 26.976363 26.530717 26.977352 35.304351 C 26.976177 40.18526 25.803305 43.945386 23.455602 46.586722 C 21.10938 49.226237 17.77635 50.547381 13.454522 50.547022 C 9.142771 50.547293 5.569236 49.582136 2.734087 47.653203 Z M 13.987828 30.663578 C 13.365495 30.664272 12.76209 30.864923 12.17414 31.26422 L 12.175257 41.691469 C 12.690571 41.915384 13.227514 42.025272 13.788245 42.025917 C 14.357232 42.025711 14.930527 41.808138 15.507961 41.371546 C 16.530965 40.643767 17.042225 38.949158 17.042082 36.291021 C 17.042818 32.53983 16.023632 30.66413 13.987828 30.663578 Z M 13.987828 30.663578 " stroke="#000000" stroke-width="6.281864" stroke-opacity="1" stroke-miterlimit="4"/><path stroke-linecap="butt" transform="matrix(2.300565, 0.495672, -0.495672, 2.300565, 285.432612, 220.802842)" fill="none" stroke-linejoin="miter" d="M 5.894603 30.170063 C 4.880844 28.349243 4.374075 26.864052 4.373022 25.716463 C 4.373941 24.570146 4.680097 23.831794 5.293812 23.5043 C 7.37339 22.596096 10.223484 22.143329 13.841773 22.143105 C 17.468524 22.142755 20.028628 22.991974 21.522084 24.690762 C 23.016688 26.379116 23.763181 28.882367 23.762835 32.198543 L 23.762407 40.825933 L 25.616474 40.82548 C 26.237974 40.825712 26.719028 41.190701 27.056041 41.919523 C 27.403139 42.64787 27.576183 43.648035 27.576795 44.91967 C 27.577407 46.191305 27.257457 47.448807 26.617294 48.6938 C 25.985119 49.928581 25.123409 50.547221 24.029841 50.546822 C 22.065409 50.547282 20.482488 50.017283 19.281778 48.960071 C 18.73097 48.523516 18.313263 47.995459 18.027958 47.372655 C 16.347835 49.488634 13.743727 50.547207 10.215283 50.546751 C 7.556431 50.547409 5.316532 49.600334 3.493963 47.705877 C 1.671744 45.813042 0.759535 43.573021 0.76058 40.985116 C 0.759971 35.055997 4.311876 32.091866 11.414323 32.091451 L 14.414706 32.091918 L 14.415717 31.544959 C 14.414303 30.592712 14.259435 29.984254 13.948791 29.716687 C 13.646834 29.442155 12.93116 29.304304 11.802119 29.304757 C 10.414901 29.304802 8.44627 29.593121 5.894603 30.170063 Z M 10.268418 40.225334 C 10.267574 41.025252 10.485626 41.635379 10.921874 42.05247 C 11.356498 42.469911 11.912733 42.679469 12.588255 42.678249 C 13.264127 42.678652 13.873152 42.408201 14.414981 41.865274 L 14.415713 37.652496 L 12.894365 37.652576 C 11.143474 37.651174 10.267426 38.510616 10.268418 40.225334 Z M 10.268418 40.225334 " stroke="#000000" stroke-width="6.281864" stroke-opacity="1" stroke-miterlimit="4"/><g fill="#c32126" fill-opacity="1"><g transform="translate(46.477666, 349.364052)"><g><path d="M 65.609375 -12.765625 C 58.296875 -11.316406 54.113281 -11.710938 53.0625 -13.953125 L 45.671875 -29.390625 L 25.625 -25.40625 L 25.078125 -9.046875 C 25.085938 -6.335938 21.3125 -4.234375 13.75 -2.734375 C 9.707031 -1.929688 6.671875 -1.566406 4.640625 -1.640625 C 2.617188 -1.710938 1.585938 -1.878906 1.546875 -2.140625 L 6.921875 -91.9375 C 6.785156 -92.613281 12.472656 -94.09375 23.984375 -96.375 C 35.503906 -98.664062 41.332031 -99.472656 41.46875 -98.796875 L 80.234375 -17.640625 C 80.347656 -17.046875 78.503906 -16.195312 74.703125 -15.09375 C 70.910156 -13.988281 67.878906 -13.210938 65.609375 -12.765625 Z M 25.59375 -42.046875 L 38.84375 -44.671875 L 27.984375 -69.640625 L 27.234375 -69.484375 Z M 25.59375 -42.046875 "/></g></g></g><g fill="#c32126" fill-opacity="1"><g transform="translate(116.197566, 333.806976)"><g><path d="M 63.9375 -3.125 C 63.96875 -2.53125 60.320312 -2.085938 53 -1.796875 C 45.675781 -1.515625 42 -1.757812 41.96875 -2.53125 L 40.515625 -39.90625 C 40.347656 -44.1875 38.851562 -46.273438 36.03125 -46.171875 C 34.570312 -46.109375 32.679688 -45.085938 30.359375 -43.109375 L 31.953125 -2 C 31.984375 -1.144531 28.335938 -0.578125 21.015625 -0.296875 C 13.703125 -0.015625 10.03125 -0.347656 10 -1.296875 L 8.375 -43.296875 L 5.15625 -43.171875 C 2.332031 -43.054688 0.804688 -45.945312 0.578125 -51.84375 C 0.472656 -54.507812 0.875 -57.234375 1.78125 -60.015625 C 3.007812 -63.835938 5.160156 -65.804688 8.234375 -65.921875 C 11.316406 -66.046875 14.328125 -65.347656 17.265625 -63.828125 C 20.203125 -62.316406 22 -60.84375 22.65625 -59.40625 C 27.769531 -64.332031 33.554688 -66.921875 40.015625 -67.171875 C 46.484375 -67.421875 51.769531 -65.601562 55.875 -61.71875 C 60.34375 -65.9375 65.828125 -68.171875 72.328125 -68.421875 C 86.460938 -68.960938 93.867188 -60.625 94.546875 -43.40625 L 96.046875 -4.359375 C 96.078125 -3.765625 92.429688 -3.328125 85.109375 -3.046875 C 77.785156 -2.765625 74.109375 -3.007812 74.078125 -3.78125 L 72.625 -41.15625 C 72.457031 -45.4375 70.960938 -47.519531 68.140625 -47.40625 C 66.597656 -47.351562 64.664062 -46.335938 62.34375 -44.359375 Z M 63.9375 -3.125 "/></g></g></g><g fill="#c32126" fill-opacity="1"><g transform="translate(205.092289, 330.705605)"><g><path d="M 15.5625 -88.46875 C 15.675781 -89.488281 19.421875 -89.617188 26.796875 -88.859375 C 34.171875 -88.097656 37.800781 -87.164062 37.6875 -86.0625 L 35.125 -61.25 C 38.851562 -61.5625 41.488281 -61.640625 43.03125 -61.484375 C 60.9375 -59.640625 68.832031 -48.441406 66.71875 -27.890625 C 65.539062 -16.472656 61.882812 -7.953125 55.75 -2.328125 C 49.613281 3.285156 41.492188 5.570312 31.390625 4.53125 C 21.285156 3.488281 13.140625 0.363281 6.953125 -4.84375 Z M 37.390625 -41.890625 C 35.941406 -42.046875 34.488281 -41.722656 33.03125 -40.921875 L 30.515625 -16.5 C 31.660156 -15.863281 32.890625 -15.476562 34.203125 -15.34375 C 35.523438 -15.207031 36.921875 -15.582031 38.390625 -16.46875 C 40.953125 -17.914062 42.554688 -21.753906 43.203125 -27.984375 C 44.097656 -36.765625 42.160156 -41.398438 37.390625 -41.890625 Z M 37.390625 -41.890625 "/></g></g></g><g fill="#c32126" fill-opacity="1"><g transform="translate(260.648997, 335.831074)"><g><path d="M 23.40625 -42.6875 C 21.957031 -47.382812 21.515625 -51.050781 22.078125 -53.6875 C 22.648438 -56.320312 23.726562 -57.863281 25.3125 -58.3125 C 30.550781 -59.382812 37.335938 -59.019531 45.671875 -57.21875 C 54.003906 -55.425781 59.46875 -52.210938 62.0625 -47.578125 C 64.664062 -42.941406 65.144531 -36.8125 63.5 -29.1875 L 59.21875 -9.328125 L 63.46875 -8.40625 C 64.894531 -8.101562 65.828125 -7.023438 66.265625 -5.171875 C 66.710938 -3.328125 66.617188 -0.941406 65.984375 1.984375 C 65.347656 4.921875 63.988281 7.648438 61.90625 10.171875 C 59.832031 12.703125 57.539062 13.695312 55.03125 13.15625 C 50.507812 12.1875 47.125 10.195312 44.875 7.1875 C 43.84375 5.90625 43.140625 4.476562 42.765625 2.90625 C 37.867188 6.925781 31.351562 8.0625 23.21875 6.3125 C 17.113281 5 12.429688 1.710938 9.171875 -3.546875 C 5.921875 -8.804688 4.9375 -14.410156 6.21875 -20.359375 C 9.15625 -34.003906 18.789062 -39.066406 35.125 -35.546875 L 42.046875 -34.0625 L 42.328125 -35.34375 C 42.796875 -37.519531 42.738281 -38.992188 42.15625 -39.765625 C 41.582031 -40.546875 40 -41.21875 37.40625 -41.78125 C 34.21875 -42.46875 29.550781 -42.769531 23.40625 -42.6875 Z M 28.46875 -17.40625 C 28.070312 -15.5625 28.269531 -14.046875 29.0625 -12.859375 C 29.863281 -11.679688 31.039062 -10.921875 32.59375 -10.578125 C 34.144531 -10.242188 35.679688 -10.578125 37.203125 -11.578125 L 39.296875 -21.25 L 35.78125 -22 C 31.757812 -22.863281 29.320312 -21.332031 28.46875 -17.40625 Z M 28.46875 -17.40625 "/></g></g></g><path stroke-linecap="butt" transform="matrix(1.471622, -0.0595851, 0.0595851, 1.471622, 55.79469, 314.372879)" fill="none" stroke-linejoin="miter" d="M 77.139059 3.838784 C 77.744234 3.839397 78.152704 3.978038 78.36447 4.254705 C 78.578887 4.531479 78.684694 4.933921 78.684541 5.462137 C 78.683626 6.468111 78.445924 7.422028 77.968785 8.32378 C 77.491967 9.217582 76.785735 9.942833 75.852843 10.496988 C 74.917302 11.051036 73.777945 11.328739 72.432122 11.32999 C 71.503106 11.329536 70.695198 11.222501 70.005641 11.011429 C 69.321492 10.797921 68.656966 10.558664 68.014713 10.293765 C 67.369703 10.031409 66.657261 9.795521 65.877281 9.588751 C 65.097516 9.37668 64.140884 9.271587 63.007493 9.270822 C 61.847495 9.271633 60.751461 9.397136 59.719393 9.64733 C 58.69019 9.892332 57.864975 10.278312 57.246291 10.808028 C 56.627714 11.335094 56.31859 12.020681 56.31892 12.864788 C 56.31866 13.395655 56.462608 13.839456 56.753307 14.198951 C 57.04422 14.553145 57.397973 14.73204 57.81743 14.730443 C 58.002202 15.149354 58.016051 15.659556 57.856435 16.258293 C 57.699683 16.851837 57.390088 17.417957 56.927542 17.959304 C 56.462345 18.500544 55.867973 18.954267 55.139017 19.32291 C 54.418119 19.689224 53.582509 19.87305 52.634835 19.874495 C 51.554552 19.873225 50.641137 19.618582 49.899889 19.110781 C 49.158964 18.595029 48.605215 17.914321 48.238536 17.071306 C 47.869529 16.220234 47.688278 15.321023 47.686833 14.373349 C 47.688385 12.499417 48.30511 10.772494 49.542309 9.192796 C 50.787672 7.60812 52.612084 6.341525 55.023495 5.393334 C 57.440421 4.440058 60.376849 3.96437 63.838187 3.963836 C 65.075144 3.963486 66.122553 3.989969 66.980522 4.040633 C 67.843684 4.094163 68.653738 4.148197 69.415876 4.205599 C 70.180879 4.257809 71.013313 4.28355 71.907879 4.282609 C 73.338611 4.282142 74.440448 4.209962 75.213606 4.060769 C 75.994714 3.911897 76.634693 3.839597 77.139059 3.838784 Z M 70.690848 18.606821 C 71.476548 18.606781 71.996534 18.744628 72.248051 19.022904 C 72.499568 19.301181 72.623421 19.651265 72.624803 20.076023 C 72.625328 20.521981 72.486762 20.994159 72.208892 21.497859 C 71.93113 21.998909 71.496833 22.432569 70.903566 22.793434 C 70.310621 23.146349 69.554941 23.322794 68.631118 23.325204 C 67.994142 23.323303 67.397669 23.304461 66.844455 23.266135 C 66.288912 23.219752 65.749377 23.171363 65.220549 23.120753 C 65.040946 23.623123 64.85042 24.133013 64.649079 24.647775 C 64.450389 25.162643 64.243963 25.67189 64.032452 26.175622 C 62.530746 29.764597 60.740747 32.41021 58.667863 34.110026 C 56.597522 35.8126 54.322797 36.662804 51.843583 36.663289 C 50.020002 36.663776 48.541517 36.33582 47.407806 35.687372 C 46.273988 35.041573 45.44778 34.206497 44.93183 33.182249 C 44.416095 32.152701 44.159024 31.093811 44.160294 30.013528 C 44.159021 28.930488 44.378742 27.896212 44.816806 26.910592 C 45.247243 25.916699 45.861079 25.113385 46.653336 24.492485 C 47.4457 23.868934 48.368827 23.555933 49.427909 23.556344 C 49.820759 23.556324 50.016153 23.712881 50.016635 24.028772 C 50.015677 24.90468 50.35857 25.614012 51.040015 26.156554 C 51.729517 26.696767 52.644938 26.967418 53.786279 26.968506 C 54.810911 26.967522 55.940452 26.604482 57.177658 25.876841 C 58.422922 25.146872 59.532509 23.965473 60.514586 22.327666 C 60.327184 22.301498 60.13946 22.283279 59.951522 22.270361 C 59.771534 22.257765 59.588681 22.250361 59.402857 22.2508 C 58.925098 22.250037 58.580336 22.111322 58.36857 21.834655 C 58.162104 21.558202 58.059344 21.211626 58.057747 20.792169 C 58.057609 20.205544 58.241762 19.721939 58.610205 19.341354 C 58.983947 18.960984 59.57819 18.772693 60.398447 18.771398 L 62.060054 18.772316 C 62.40025 17.843784 62.737688 16.917795 63.064311 15.996676 C 63.393585 15.075665 63.728769 14.205327 64.069758 13.388311 C 64.333939 12.69825 64.68558 12.208155 65.124683 11.918026 C 65.561136 11.627789 66.071296 11.483873 66.649971 11.483414 C 67.520578 11.484157 68.09407 11.677258 68.370445 12.062717 C 68.649685 12.442982 68.681763 12.961886 68.469328 13.619535 C 68.204728 14.516621 67.933574 15.378934 67.655757 16.209125 C 67.377832 17.041966 67.094929 17.866643 66.804291 18.685697 C 67.649471 18.658867 68.401471 18.638882 69.05764 18.625634 C 69.72176 18.612708 70.266091 18.608204 70.690848 18.606821 Z M 92.335678 24.154922 C 92.488651 23.916913 92.739075 23.82884 93.078892 23.893032 C 93.426658 23.957547 93.726048 24.102388 93.979603 24.330314 C 94.230616 24.555482 94.275429 24.825389 94.114044 25.140035 C 93.747413 25.934778 93.265757 26.751407 92.674163 27.595437 C 92.079918 28.43936 91.339985 29.144665 90.451609 29.713895 C 89.568639 30.280689 88.479525 30.563081 87.18416 30.56372 L 86.709052 30.563064 C 85.736129 31.909259 84.569667 32.987488 83.209883 33.792452 C 81.850098 34.597415 80.429665 34.999111 78.948475 35.00019 C 77.183302 35.000387 75.720847 34.407642 74.56111 33.221955 C 73.401695 32.028317 72.819679 30.406812 72.820684 28.349705 C 72.819606 26.868515 73.090548 25.355869 73.633297 23.817067 C 74.173717 22.270208 74.932127 20.846313 75.903226 19.545168 C 76.882598 18.236395 78.029329 17.186565 79.343526 16.393028 C 80.665566 15.602462 82.117692 15.204704 83.704991 15.205268 C 84.785381 15.203887 85.7639 15.424005 86.632704 15.862649 C 87.501829 16.293342 88.194742 17.011538 88.711443 18.017235 C 89.225708 19.017525 89.484978 20.349906 89.483738 22.019463 C 89.482843 23.418287 89.287239 24.774721 88.894278 26.088656 L 89.165011 26.089 C 89.743685 26.088541 90.299325 25.935849 90.826523 25.63336 C 91.356371 25.330979 91.859387 24.839049 92.335678 24.154922 Z M 81.21004 26.804773 C 81.868322 26.804882 82.446987 26.607998 82.948682 26.214228 C 83.453243 25.815264 83.84972 25.332293 84.138115 24.765315 C 84.429161 24.198443 84.574024 23.63627 84.572599 23.081446 C 84.57479 22.502879 84.403623 22.010197 84.061748 21.603506 C 83.720087 21.191514 83.165682 20.985914 82.398641 20.984056 C 81.766858 20.985019 81.207173 21.172054 80.716936 21.545053 C 80.226914 21.912753 79.84433 22.38036 79.566535 22.947768 C 79.28874 23.515176 79.151397 24.088271 79.151857 24.666945 C 79.152209 25.248269 79.309697 25.751016 79.62432 26.175184 C 79.941808 26.59416 80.469498 26.803987 81.21004 26.804773 Z M 111.173802 24.155858 C 111.329426 23.917956 111.5772 23.829776 111.919666 23.894076 C 112.267433 23.95859 112.566822 24.103431 112.817835 24.3286 C 113.068848 24.553768 113.113554 24.826325 112.952169 25.140971 C 112.585645 25.933064 112.106532 26.75245 111.512287 27.596373 C 110.920692 28.440403 110.17811 29.145601 109.28984 29.71218 C 108.406871 30.278975 107.31765 30.564016 106.022285 30.564656 L 105.549826 30.564107 C 104.576903 31.910302 103.410549 32.985881 102.050765 33.790845 C 100.690873 34.598459 99.270439 35.000154 97.7866 35.001126 C 96.021534 34.998673 94.559078 34.405928 93.399342 33.22024 C 92.239819 32.029253 91.660561 30.405205 91.658808 28.350641 C 91.660487 26.866909 91.931323 25.356913 92.471421 23.818003 C 93.011842 22.271144 93.770252 20.847249 94.744108 19.543561 C 95.723372 18.237439 96.870103 17.187608 98.1843 16.394071 C 99.503798 15.600748 100.958467 15.205747 102.543116 15.206203 C 103.626156 15.20493 104.602024 15.424941 105.470935 15.860935 C 106.342604 16.294385 107.035517 17.012581 107.549567 18.018171 C 108.06659 19.015918 108.323102 20.350842 108.321863 22.020399 C 108.323725 23.41668 108.125471 24.773006 107.732402 26.089592 L 108.003243 26.087286 C 108.58446 26.089584 109.13745 25.936785 109.667298 25.634404 C 110.194496 25.331915 110.697619 24.837335 111.173802 24.155858 Z M 100.048271 26.803058 C 100.706554 26.803168 101.287868 26.606391 101.789457 26.215271 C 102.291475 25.81355 102.687952 25.330579 102.978997 24.763708 C 103.267392 24.196729 103.412149 23.637206 103.413374 23.08249 C 103.413022 22.501165 103.241854 22.008483 102.899872 21.604441 C 102.558211 21.19245 102.003914 20.9842 101.239415 20.985099 C 100.607633 20.986062 100.045298 21.17299 99.557711 21.546097 C 99.067688 21.913796 98.682454 22.381296 98.407417 22.946161 C 98.129622 23.513569 97.989629 24.086556 97.989981 24.667881 C 97.99044 25.246555 98.147928 25.749301 98.465095 26.176227 C 98.779933 26.595096 99.307623 26.804923 100.048271 26.803058 Z M 114.886158 35.000682 C 113.333418 34.998863 112.192658 34.458959 111.466744 33.375777 C 110.73818 32.292487 110.372801 30.958465 110.373257 29.373816 C 110.374614 27.898034 110.583565 26.343062 111.000217 24.706251 C 111.42747 23.069869 112.068377 21.532386 112.925482 20.096561 C 113.787995 18.658301 114.857403 17.485893 116.133813 16.576687 C 117.415738 15.662396 118.902133 15.204974 120.590348 15.204315 C 121.381347 15.204489 121.993367 15.298283 122.426406 15.485698 C 122.865068 15.665376 123.196118 15.880513 123.4221 16.133866 C 123.648189 16.38457 123.838144 16.60992 123.991964 16.809918 C 124.153733 17.010238 124.364738 17.109031 124.630171 17.10916 C 124.842497 17.109794 125.014128 16.869886 125.1422 16.394628 C 125.27833 15.917042 125.474146 15.210941 125.732298 14.276433 C 125.995964 13.336839 126.408559 12.193579 126.970082 10.846653 C 127.465075 9.635061 127.958651 8.720702 128.448267 8.10082 C 128.937883 7.480937 129.405879 7.067222 129.849821 6.854265 C 130.299062 6.641523 130.725461 6.534032 131.126261 6.534334 C 131.808394 6.535409 132.261925 6.872298 132.48929 7.550409 C 132.714326 8.220462 132.561029 9.122054 132.034697 10.255401 L 127.55787 21.700338 C 126.901953 23.149618 126.655377 24.25713 126.823336 25.025738 C 126.996701 25.791912 127.520067 26.174099 128.390675 26.174842 C 129.072808 26.175917 129.666621 25.998227 130.169357 25.644315 C 130.669766 25.282345 131.122538 24.785727 131.522374 24.154246 C 131.728918 23.838774 131.996207 23.727495 132.324351 23.817758 C 132.657794 23.908236 132.934696 24.08402 133.154948 24.347758 C 133.380501 24.611712 133.42818 24.876426 133.300633 25.142009 C 132.822743 26.062311 132.314061 27.087542 131.772043 28.214945 C 131.23024 29.337047 130.62931 30.411631 129.966389 31.443888 C 129.30909 32.468411 128.557956 33.319253 127.713095 33.993766 C 126.868341 34.665629 125.893898 35.000442 124.784358 35.000642 C 123.5209 34.999919 122.585052 34.447076 121.971727 33.3366 C 121.366245 32.229096 121.169643 30.856782 121.38192 29.219659 L 121.228003 29.218736 C 120.408867 30.831288 119.453743 32.196784 118.357223 33.317661 C 117.260703 34.438539 116.104565 34.999581 114.886158 35.000682 Z M 118.493546 26.804014 C 119.149179 26.804017 119.730493 26.60724 120.232189 26.213469 C 120.734099 25.814399 121.130577 25.331428 121.421622 24.764556 C 121.710017 24.197577 121.854881 23.635405 121.855999 23.083338 C 121.855647 22.502014 121.684479 22.009331 121.342604 21.60264 C 121.000944 21.190649 120.449189 20.985156 119.68204 20.985947 C 119.050365 20.984261 118.48803 21.171188 118.000336 21.546945 C 117.51042 21.911994 117.125186 22.379494 116.850042 22.94701 C 116.572247 23.514418 116.432254 24.087405 116.432606 24.668729 C 116.433065 25.247404 116.590553 25.75015 116.907827 26.174426 C 117.222665 26.593294 117.750355 26.803121 118.493546 26.804014 Z M 118.493546 26.804014 " stroke="#000000" stroke-width="4.50417" stroke-opacity="1" stroke-miterlimit="4"/><g fill="#f4ac23" fill-opacity="1"><g transform="translate(125.781731, 363.13036)"><g><path d="M 43.765625 -47.703125 C 44.660156 -47.742188 45.269531 -47.566406 45.59375 -47.171875 C 45.914062 -46.773438 46.09375 -46.1875 46.125 -45.40625 C 46.1875 -43.925781 45.894531 -42.507812 45.25 -41.15625 C 44.601562 -39.8125 43.609375 -38.703125 42.265625 -37.828125 C 40.921875 -36.960938 39.257812 -36.488281 37.28125 -36.40625 C 35.914062 -36.351562 34.71875 -36.457031 33.6875 -36.71875 C 32.664062 -36.988281 31.671875 -37.300781 30.703125 -37.65625 C 29.734375 -38.007812 28.671875 -38.316406 27.515625 -38.578125 C 26.367188 -38.847656 24.960938 -38.945312 23.296875 -38.875 C 21.585938 -38.8125 19.984375 -38.5625 18.484375 -38.125 C 16.984375 -37.695312 15.789062 -37.078125 14.90625 -36.265625 C 14.019531 -35.453125 13.601562 -34.421875 13.65625 -33.171875 C 13.6875 -32.398438 13.925781 -31.757812 14.375 -31.25 C 14.820312 -30.738281 15.359375 -30.5 15.984375 -30.53125 C 16.273438 -29.914062 16.320312 -29.164062 16.125 -28.28125 C 15.925781 -27.40625 15.503906 -26.554688 14.859375 -25.734375 C 14.210938 -24.910156 13.363281 -24.203125 12.3125 -23.609375 C 11.257812 -23.023438 10.035156 -22.707031 8.640625 -22.65625 C 7.054688 -22.59375 5.703125 -22.914062 4.578125 -23.625 C 3.460938 -24.332031 2.609375 -25.296875 2.015625 -26.515625 C 1.429688 -27.742188 1.109375 -29.050781 1.046875 -30.4375 C 0.941406 -33.195312 1.753906 -35.78125 3.484375 -38.1875 C 5.210938 -40.59375 7.820312 -42.566406 11.3125 -44.109375 C 14.8125 -45.660156 19.109375 -46.535156 24.203125 -46.734375 C 26.023438 -46.816406 27.566406 -46.84375 28.828125 -46.8125 C 30.085938 -46.78125 31.285156 -46.75 32.421875 -46.71875 C 33.554688 -46.6875 34.785156 -46.695312 36.109375 -46.75 C 38.203125 -46.832031 39.816406 -47.003906 40.953125 -47.265625 C 42.085938 -47.523438 43.023438 -47.671875 43.765625 -47.703125 Z M 35.15625 -25.59375 C 36.320312 -25.632812 37.097656 -25.457031 37.484375 -25.0625 C 37.867188 -24.675781 38.070312 -24.171875 38.09375 -23.546875 C 38.125 -22.890625 37.945312 -22.179688 37.5625 -21.421875 C 37.175781 -20.671875 36.554688 -20.015625 35.703125 -19.453125 C 34.847656 -18.890625 33.742188 -18.582031 32.390625 -18.53125 C 31.453125 -18.488281 30.570312 -18.476562 29.75 -18.5 C 28.9375 -18.53125 28.148438 -18.570312 27.390625 -18.625 C 27.148438 -17.875 26.894531 -17.109375 26.625 -16.328125 C 26.363281 -15.554688 26.09375 -14.796875 25.8125 -14.046875 C 23.8125 -8.691406 21.332031 -4.695312 18.375 -2.0625 C 15.425781 0.570312 12.128906 1.960938 8.484375 2.109375 C 5.804688 2.222656 3.613281 1.835938 1.90625 0.953125 C 0.195312 0.0664062 -1.066406 -1.113281 -1.890625 -2.59375 C -2.710938 -4.082031 -3.15625 -5.625 -3.21875 -7.21875 C -3.28125 -8.800781 -3.019531 -10.332031 -2.4375 -11.8125 C -1.851562 -13.300781 -1 -14.523438 0.125 -15.484375 C 1.25 -16.453125 2.59375 -16.972656 4.15625 -17.046875 C 4.738281 -17.066406 5.039062 -16.84375 5.0625 -16.375 C 5.113281 -15.09375 5.660156 -14.070312 6.703125 -13.3125 C 7.742188 -12.5625 9.09375 -12.21875 10.75 -12.28125 C 12.269531 -12.34375 13.921875 -12.941406 15.703125 -14.078125 C 17.492188 -15.222656 19.0625 -17.03125 20.40625 -19.5 C 20.132812 -19.53125 19.859375 -19.550781 19.578125 -19.5625 C 19.296875 -19.570312 19.019531 -19.570312 18.75 -19.5625 C 18.050781 -19.53125 17.535156 -19.707031 17.203125 -20.09375 C 16.878906 -20.488281 16.707031 -21 16.6875 -21.625 C 16.644531 -22.476562 16.882812 -23.195312 17.40625 -23.78125 C 17.9375 -24.375 18.804688 -24.691406 20.015625 -24.734375 L 22.453125 -24.84375 C 22.910156 -26.226562 23.351562 -27.601562 23.78125 -28.96875 C 24.207031 -30.34375 24.65625 -31.644531 25.125 -32.875 C 25.46875 -33.90625 25.945312 -34.644531 26.5625 -35.09375 C 27.175781 -35.550781 27.910156 -35.796875 28.765625 -35.828125 C 30.046875 -35.878906 30.90625 -35.628906 31.34375 -35.078125 C 31.78125 -34.535156 31.859375 -33.769531 31.578125 -32.78125 C 31.253906 -31.445312 30.910156 -30.160156 30.546875 -28.921875 C 30.179688 -27.679688 29.8125 -26.457031 29.4375 -25.25 C 30.6875 -25.332031 31.796875 -25.398438 32.765625 -25.453125 C 33.734375 -25.515625 34.53125 -25.5625 35.15625 -25.59375 Z M 35.15625 -25.59375 "/></g></g></g><g fill="#f4ac23" fill-opacity="1"><g transform="translate(164.688818, 361.555036)"><g><path d="M 28.421875 -17.140625 C 28.640625 -17.492188 29.003906 -17.628906 29.515625 -17.546875 C 30.023438 -17.472656 30.472656 -17.28125 30.859375 -16.96875 C 31.242188 -16.65625 31.320312 -16.257812 31.09375 -15.78125 C 30.601562 -14.59375 29.945312 -13.359375 29.125 -12.078125 C 28.3125 -10.804688 27.269531 -9.726562 26 -8.84375 C 24.726562 -7.957031 23.140625 -7.476562 21.234375 -7.40625 L 20.53125 -7.375 C 19.175781 -5.332031 17.519531 -3.675781 15.5625 -2.40625 C 13.613281 -1.144531 11.554688 -0.46875 9.390625 -0.375 C 6.785156 -0.269531 4.585938 -1.054688 2.796875 -2.734375 C 1.015625 -4.421875 0.0664062 -6.773438 -0.046875 -9.796875 C -0.140625 -11.972656 0.164062 -14.210938 0.875 -16.515625 C 1.582031 -18.828125 2.617188 -20.972656 3.984375 -22.953125 C 5.347656 -24.929688 6.972656 -26.539062 8.859375 -27.78125 C 10.753906 -29.019531 12.867188 -29.6875 15.203125 -29.78125 C 16.796875 -29.851562 18.242188 -29.597656 19.546875 -29.015625 C 20.847656 -28.429688 21.910156 -27.410156 22.734375 -25.953125 C 23.554688 -24.503906 24.015625 -22.554688 24.109375 -20.109375 C 24.191406 -18.046875 23.984375 -16.035156 23.484375 -14.078125 L 23.890625 -14.09375 C 24.742188 -14.132812 25.550781 -14.394531 26.3125 -14.875 C 27.070312 -15.351562 27.773438 -16.109375 28.421875 -17.140625 Z M 12.21875 -12.578125 C 13.1875 -12.617188 14.023438 -12.941406 14.734375 -13.546875 C 15.453125 -14.148438 16.007812 -14.878906 16.40625 -15.734375 C 16.800781 -16.597656 16.984375 -17.4375 16.953125 -18.25 C 16.910156 -19.101562 16.625 -19.820312 16.09375 -20.40625 C 15.570312 -20.988281 14.75 -21.253906 13.625 -21.203125 C 12.6875 -21.171875 11.867188 -20.867188 11.171875 -20.296875 C 10.472656 -19.722656 9.9375 -19.007812 9.5625 -18.15625 C 9.1875 -17.300781 9.019531 -16.445312 9.0625 -15.59375 C 9.09375 -14.738281 9.351562 -14.007812 9.84375 -13.40625 C 10.332031 -12.8125 11.125 -12.535156 12.21875 -12.578125 Z M 12.21875 -12.578125 "/></g></g></g><g fill="#f4ac23" fill-opacity="1"><g transform="translate(192.413028, 360.4325)"><g><path d="M 28.421875 -17.140625 C 28.640625 -17.492188 29.003906 -17.628906 29.515625 -17.546875 C 30.023438 -17.472656 30.472656 -17.28125 30.859375 -16.96875 C 31.242188 -16.65625 31.320312 -16.257812 31.09375 -15.78125 C 30.601562 -14.59375 29.945312 -13.359375 29.125 -12.078125 C 28.3125 -10.804688 27.269531 -9.726562 26 -8.84375 C 24.726562 -7.957031 23.140625 -7.476562 21.234375 -7.40625 L 20.53125 -7.375 C 19.175781 -5.332031 17.519531 -3.675781 15.5625 -2.40625 C 13.613281 -1.144531 11.554688 -0.46875 9.390625 -0.375 C 6.785156 -0.269531 4.585938 -1.054688 2.796875 -2.734375 C 1.015625 -4.421875 0.0664062 -6.773438 -0.046875 -9.796875 C -0.140625 -11.972656 0.164062 -14.210938 0.875 -16.515625 C 1.582031 -18.828125 2.617188 -20.972656 3.984375 -22.953125 C 5.347656 -24.929688 6.972656 -26.539062 8.859375 -27.78125 C 10.753906 -29.019531 12.867188 -29.6875 15.203125 -29.78125 C 16.796875 -29.851562 18.242188 -29.597656 19.546875 -29.015625 C 20.847656 -28.429688 21.910156 -27.410156 22.734375 -25.953125 C 23.554688 -24.503906 24.015625 -22.554688 24.109375 -20.109375 C 24.191406 -18.046875 23.984375 -16.035156 23.484375 -14.078125 L 23.890625 -14.09375 C 24.742188 -14.132812 25.550781 -14.394531 26.3125 -14.875 C 27.070312 -15.351562 27.773438 -16.109375 28.421875 -17.140625 Z M 12.21875 -12.578125 C 13.1875 -12.617188 14.023438 -12.941406 14.734375 -13.546875 C 15.453125 -14.148438 16.007812 -14.878906 16.40625 -15.734375 C 16.800781 -16.597656 16.984375 -17.4375 16.953125 -18.25 C 16.910156 -19.101562 16.625 -19.820312 16.09375 -20.40625 C 15.570312 -20.988281 14.75 -21.253906 13.625 -21.203125 C 12.6875 -21.171875 11.867188 -20.867188 11.171875 -20.296875 C 10.472656 -19.722656 9.9375 -19.007812 9.5625 -18.15625 C 9.1875 -17.300781 9.019531 -16.445312 9.0625 -15.59375 C 9.09375 -14.738281 9.351562 -14.007812 9.84375 -13.40625 C 10.332031 -12.8125 11.125 -12.535156 12.21875 -12.578125 Z M 12.21875 -12.578125 "/></g></g></g><g fill="#f4ac23" fill-opacity="1"><g transform="translate(220.137237, 359.309964)"><g><path d="M 6.828125 -0.28125 C 4.523438 -0.1875 2.804688 -0.910156 1.671875 -2.453125 C 0.546875 -4.003906 -0.0625 -5.945312 -0.15625 -8.28125 C -0.25 -10.445312 -0.0351562 -12.75 0.484375 -15.1875 C 1.015625 -17.625 1.867188 -19.925781 3.046875 -22.09375 C 4.222656 -24.257812 5.722656 -26.050781 7.546875 -27.46875 C 9.378906 -28.882812 11.539062 -29.640625 14.03125 -29.734375 C 15.195312 -29.785156 16.101562 -29.691406 16.75 -29.453125 C 17.40625 -29.210938 17.90625 -28.910156 18.25 -28.546875 C 18.59375 -28.191406 18.882812 -27.875 19.125 -27.59375 C 19.375 -27.3125 19.695312 -27.179688 20.09375 -27.203125 C 20.40625 -27.210938 20.640625 -27.566406 20.796875 -28.265625 C 20.960938 -28.972656 21.210938 -30.023438 21.546875 -31.421875 C 21.890625 -32.816406 22.425781 -34.523438 23.15625 -36.546875 C 23.820312 -38.359375 24.492188 -39.734375 25.171875 -40.671875 C 25.859375 -41.617188 26.519531 -42.257812 27.15625 -42.59375 C 27.800781 -42.925781 28.414062 -43.109375 29 -43.140625 C 30.007812 -43.171875 30.695312 -42.695312 31.0625 -41.71875 C 31.4375 -40.75 31.273438 -39.410156 30.578125 -37.703125 L 24.671875 -20.609375 C 23.796875 -18.429688 23.503906 -16.78125 23.796875 -15.65625 C 24.085938 -14.539062 24.875 -14.007812 26.15625 -14.0625 C 27.164062 -14.101562 28.023438 -14.398438 28.734375 -14.953125 C 29.453125 -15.515625 30.085938 -16.273438 30.640625 -17.234375 C 30.929688 -17.703125 31.320312 -17.878906 31.8125 -17.765625 C 32.300781 -17.648438 32.71875 -17.40625 33.0625 -17.03125 C 33.414062 -16.664062 33.5 -16.28125 33.3125 -15.875 C 32.675781 -14.488281 31.992188 -12.953125 31.265625 -11.265625 C 30.535156 -9.585938 29.710938 -7.96875 28.796875 -6.40625 C 27.890625 -4.851562 26.832031 -3.554688 25.625 -2.515625 C 24.425781 -1.484375 23.015625 -0.929688 21.390625 -0.859375 C 19.523438 -0.785156 18.109375 -1.546875 17.140625 -3.140625 C 16.179688 -4.734375 15.8125 -6.742188 16.03125 -9.171875 L 15.796875 -9.171875 C 14.679688 -6.742188 13.347656 -4.671875 11.796875 -2.953125 C 10.253906 -1.242188 8.597656 -0.351562 6.828125 -0.28125 Z M 11.625 -12.546875 C 12.601562 -12.585938 13.445312 -12.910156 14.15625 -13.515625 C 14.863281 -14.128906 15.414062 -14.863281 15.8125 -15.71875 C 16.207031 -16.570312 16.390625 -17.40625 16.359375 -18.21875 C 16.316406 -19.070312 16.03125 -19.789062 15.5 -20.375 C 14.976562 -20.957031 14.15625 -21.226562 13.03125 -21.1875 C 12.101562 -21.144531 11.289062 -20.835938 10.59375 -20.265625 C 9.894531 -19.703125 9.359375 -18.992188 8.984375 -18.140625 C 8.609375 -17.285156 8.441406 -16.429688 8.484375 -15.578125 C 8.515625 -14.722656 8.773438 -13.992188 9.265625 -13.390625 C 9.753906 -12.785156 10.539062 -12.503906 11.625 -12.546875 Z M 11.625 -12.546875 "/></g></g></g></svg>